<svg width="190" height="40" viewBox="0 0 190 40" fill="none" xmlns="http://www.w3.org/2000/svg">
<g clip-path="url(#clip0_124_524)">
<path d="M23.8745 20.4612C26.2888 20.1899 29.7702 17.8186 29.7702 12.8537C29.7702 6.91753 25.4804 2.97815 18.8895 2.97815H0.286133V39.1325H18.9434C26.7685 39.1325 30.7942 34.9761 30.7942 28.9856C30.7942 23.5378 27.1996 20.9441 23.8799 20.6728L23.8745 20.4612ZM9.12974 10.1515H17.1704C19.423 10.1515 21.1907 11.6111 21.1907 13.8738C21.1907 16.3047 19.4769 17.9217 16.847 17.9217H9.12435L9.12974 10.1515ZM9.12974 31.9537V24.0207H17.5476C20.0697 24.0207 21.7835 25.5292 21.7835 27.9058C21.7835 30.3856 20.2314 31.9537 17.3859 31.9537H9.12974ZM41.6749 39.1325V0.275932H33.0953V39.1325H41.6749ZM73.5194 12.0398H64.9398V14.1994C62.8489 12.3111 60.0627 11.2313 56.5759 11.2313C49.446 11.2313 43.4425 17.059 43.4425 25.5834C43.4425 34.1622 49.446 39.9356 56.5759 39.9356C60.0627 39.9356 62.8489 38.8558 64.9398 36.9675V39.1271H73.5194V12.0398ZM58.3489 32.5994C54.5981 32.5994 51.8604 29.7941 51.8604 25.5834C51.8604 21.427 54.5927 18.5674 58.3489 18.5674C61.8357 18.5674 64.9452 21.427 64.9452 25.5834C64.9452 29.7941 61.8357 32.5994 58.3489 32.5994ZM94.0036 11.2313C90.5168 11.2313 87.7306 12.3111 85.6396 14.1994V0.275932H77.0601V39.1325H85.6396V36.9729C87.7306 38.8612 90.5168 39.941 94.0036 39.941C101.133 39.941 107.137 34.1676 107.137 25.5889C107.137 17.0644 101.133 11.2367 94.0036 11.2367V11.2313ZM92.2359 32.5994C88.7492 32.5994 85.6396 29.7941 85.6396 25.5834C85.6396 21.427 88.7492 18.5674 92.2359 18.5674C95.9868 18.5674 98.7245 21.427 98.7245 25.5834C98.7245 29.7941 95.9922 32.5994 92.2359 32.5994ZM125.854 11.2313C122.367 11.2313 119.581 12.3111 117.49 14.1994V0.275932H108.91V39.1325H117.49V36.9729C119.581 38.8612 122.367 39.941 125.854 39.941C132.983 39.941 138.987 34.1676 138.987 25.5889C138.987 17.0644 132.983 11.2367 125.854 11.2367V11.2313ZM124.086 32.5994C120.599 32.5994 117.49 29.7941 117.49 25.5834C117.49 21.427 120.599 18.5674 124.086 18.5674C127.837 18.5674 130.574 21.427 130.574 25.5834C130.574 29.7941 127.842 32.5994 124.086 32.5994ZM149.339 39.1271V0.270508H140.76V39.1271H149.339ZM179.255 25.5834C179.093 16.7334 172.982 11.2313 165.367 11.2313C157.542 11.2313 151.107 17.059 151.107 25.5834C151.107 34.1622 157.542 39.9356 165.313 39.9356C171.478 39.9356 176.355 37.1845 178.662 31.4654L171.047 29.9026C169.597 32.5452 167.296 33.0335 165.313 33.0335C162.419 33.0335 160.22 31.0367 159.525 27.7973H179.255V25.5834ZM165.367 18.2419C167.835 18.2419 169.98 19.593 170.783 22.5068H159.687C160.49 19.7558 162.958 18.2419 165.372 18.2419H165.367ZM184.132 29.6802C181.292 29.6802 179.255 31.9483 179.255 34.5366C179.255 37.2876 181.292 39.393 184.132 39.393C186.972 39.393 189.063 37.2876 189.063 34.5366C189.063 31.9483 186.972 29.6802 184.132 29.6802Z" fill="white"/>
</g>
<defs>
<clipPath id="clip0_124_524">
<rect width="188.777" height="39.6705" fill="white" transform="translate(0.286133 0.270508)"/>
</clipPath>
</defs>
</svg>
