<svg width="51" height="50" viewBox="0 0 51 50" fill="none" xmlns="http://www.w3.org/2000/svg">
<g clip-path="url(#clip0_127_635)">
<path d="M50.3635 26.0854C50.0624 26.9195 49.5742 27.5487 48.6303 27.6925C47.4898 27.8647 46.409 27.0212 46.3357 25.8739C46.3018 25.3355 46.3005 24.7917 46.3168 24.2519C46.3507 23.2009 47.0572 22.4306 48.0906 22.2841C49.0169 22.1526 49.935 22.7534 50.2523 23.6986C50.2889 23.8057 50.3269 23.9129 50.3635 24.0214C50.3635 24.7089 50.3635 25.3965 50.3635 26.0854Z" fill="white"/>
<path d="M39.2038 4.26486C39.73 3.50677 40.2046 2.77852 40.7308 2.08959C40.9017 1.86718 41.2285 1.59324 41.4442 1.62443C41.653 1.65427 41.8998 2.01907 41.9771 2.28081C42.5942 4.40183 43.1814 6.53235 43.7632 8.66287C44.0344 9.65421 43.5964 10.2441 42.5657 10.335C40.427 10.5249 38.2897 10.7188 36.1511 10.91C36.086 10.9154 36.0141 10.9398 35.9558 10.9222C35.69 10.8381 35.3266 10.8151 35.195 10.6293C35.0906 10.4828 35.2072 10.0909 35.3401 9.88069C35.8215 9.11989 36.3505 8.38892 36.9187 7.56574C35.907 7.02192 34.9414 6.43606 33.9216 5.96955C30.5434 4.42489 26.9835 3.79428 23.2907 4.16315C17.3507 4.75715 12.4483 7.35418 8.68493 12.0139C5.72174 15.6823 4.12419 19.9081 4.08486 24.6072C4.02248 32.1365 7.03992 38.1944 13.2172 42.5857C15.6528 44.3175 18.3828 45.3902 21.3148 45.9666C22.6777 46.2337 23.3911 47.4041 22.991 48.6219C22.6777 49.578 21.6755 50.1639 20.6435 49.9564C13.0897 48.4388 7.30301 44.3894 3.38237 37.7564C0.920956 33.593 -0.174816 29.0364 0.0231824 24.2112C0.255085 18.5302 2.19574 13.4677 5.84786 9.09005C9.63966 4.54559 14.4513 1.67461 20.2488 0.520524C26.8113 -0.786807 32.9424 0.380841 38.6261 3.90955C38.8064 4.02075 38.9868 4.13196 39.2038 4.26486Z" fill="white"/>
<path d="M25.5716 17.4343C25.5716 19.7289 25.5811 22.0249 25.5621 24.3195C25.5594 24.687 25.6842 24.8579 26.0015 25.022C30.1812 27.1688 34.3527 29.3305 38.5256 31.4922C39.3962 31.9438 39.7434 32.5907 39.5644 33.3908C39.3488 34.351 38.3778 34.9002 37.4488 34.5802C37.2644 34.5164 37.0854 34.4296 36.9118 34.3401C32.1856 31.8977 27.4607 29.4512 22.7305 27.0142C22.4389 26.8636 22.2965 26.7131 22.2979 26.3524C22.3114 21.123 22.306 15.8937 22.3087 10.663C22.3101 9.5754 22.9271 8.8702 23.8791 8.84173C24.8461 8.81189 25.5648 9.52251 25.5689 10.5478C25.5784 12.8437 25.5716 15.1397 25.5716 17.4343Z" fill="white"/>
<path d="M40.8052 40.1974C40.8052 40.1811 40.8052 40.1648 40.8052 40.1485C40.8282 38.8765 42.499 37.0999 43.6816 37.0904C45.2344 37.0769 46.2406 38.7503 45.4378 40.0794C45.0866 40.6612 44.639 41.205 44.1549 41.6837C43.5568 42.2763 42.8014 42.3781 42.0176 42.0512C41.2568 41.7352 40.8025 41.026 40.8052 40.1974Z" fill="white"/>
<path d="M30.469 45.6519C31.7343 45.6532 32.5765 46.3476 32.742 47.2901C32.9115 48.2597 32.4043 49.2212 31.4794 49.5277C30.8474 49.7366 30.1843 49.8831 29.5225 49.9658C28.5474 50.0865 27.6564 49.3989 27.4191 48.4265C27.1899 47.4854 27.651 46.4642 28.5623 46.1333C29.2621 45.8783 30.012 45.7631 30.469 45.6519Z" fill="white"/>
<path d="M49.291 32.474C49.0876 32.9784 48.834 33.8667 48.3892 34.6452C47.9389 35.4317 46.8608 35.6419 46.0322 35.2771C45.167 34.896 44.6408 34.0362 44.8415 33.1398C44.9974 32.4441 45.232 31.7525 45.5372 31.107C45.9264 30.2824 46.896 29.9108 47.7925 30.1332C48.6672 30.3529 49.2897 31.1626 49.291 32.474Z" fill="white"/>
<path d="M47.0778 19.9273C46.3333 19.9042 45.6769 19.5394 45.3284 18.7352C45.1019 18.2118 44.9053 17.6707 44.7466 17.1228C44.4564 16.1274 44.9785 15.094 45.9292 14.7156C46.8839 14.3359 47.9932 14.7129 48.4435 15.6446C48.7391 16.2589 48.9832 16.9126 49.1405 17.5757C49.4199 18.7624 48.4286 19.9192 47.0778 19.9273Z" fill="white"/>
<path d="M37.9412 42.4297C38.8078 42.4826 39.5537 42.9979 39.8507 43.7899C40.1463 44.5792 39.9429 45.5027 39.2716 46.0099C38.7414 46.4114 38.1663 46.7748 37.5642 47.0555C36.5851 47.5139 35.4988 47.122 34.9929 46.2052C34.4844 45.283 34.7434 44.1886 35.6412 43.5675C36.0847 43.261 36.5444 42.9735 37.0204 42.7253C37.3025 42.5789 37.6334 42.5246 37.9412 42.4297Z" fill="white"/>
</g>
<defs>
<clipPath id="clip0_127_635">
<rect width="50.3634" height="50" fill="white"/>
</clipPath>
</defs>
</svg>
