<svg width="71" height="50" viewBox="0 0 71 50" fill="none" xmlns="http://www.w3.org/2000/svg">
<path d="M25.0007 50C11.2188 50.0038 -0.0210825 38.7506 -0.000215132 24.9687C0.0206522 11.202 11.2283 0.00379502 24.9894 9.59429e-07C38.7751 -0.0037931 50.0112 11.2456 49.9903 25.0294C49.9694 38.7942 38.758 49.9962 25.0007 50ZM2.27243 24.9668C2.25156 37.4777 12.431 47.6951 24.9457 47.7274C37.4528 47.7596 47.674 37.5896 47.7196 25.0673C47.7651 12.5318 37.5534 2.28402 25.0121 2.27264C12.4993 2.26316 2.29329 12.4502 2.27243 24.9668Z" fill="white"/>
<path d="M52.2631 9.0774C52.6823 9.0774 52.9897 9.0774 53.3994 9.0774C53.3994 7.98851 53.4051 6.9091 53.3975 5.83159C53.3937 5.21316 53.6498 4.77305 54.2474 4.59093C54.9607 4.37277 55.6455 4.91912 55.6645 5.74432C55.6891 6.82943 55.6702 7.91453 55.6702 9.04516C56.0553 9.04516 56.3929 9.04516 56.8084 9.04516C56.8084 8.02266 56.8046 7.01154 56.8084 6.00042C56.8122 5.06519 57.2504 4.52643 57.9788 4.55109C58.6807 4.57386 59.0772 5.08985 59.0791 6.00042C59.0829 7.91642 59.0791 9.83432 59.081 11.7503C59.0829 13.2585 58.4967 14.4726 57.2124 15.2769C56.8141 15.5254 56.8387 15.8138 56.8539 16.1685C57.184 24.7032 57.5141 33.2399 57.8347 41.7765C57.9143 43.8917 56.5295 45.4378 54.5813 45.4567C52.7222 45.4757 51.2216 44.0321 51.2425 42.1464C51.2672 39.9705 51.3696 37.7946 51.4531 35.6187C51.7054 29.093 51.9634 22.5672 52.2346 16.0414C52.2498 15.6601 52.1379 15.459 51.8173 15.2484C50.6222 14.4688 50.0132 13.3324 49.9999 11.9078C49.981 9.89692 49.9886 7.88417 49.9961 5.87332C49.9999 5.04811 50.459 4.53592 51.1476 4.5492C51.8325 4.56058 52.2574 5.06898 52.2631 5.91126C52.2707 6.94894 52.2631 7.98472 52.2631 9.0774ZM54.7729 16.8495C54.6477 16.8514 54.5225 16.8514 54.3973 16.8533C54.3973 17.3466 54.4124 17.8417 54.3954 18.3349C54.2777 21.5048 54.1506 24.6729 54.0311 27.8428C53.8547 32.5266 53.6669 37.2084 53.5303 41.8941C53.5189 42.2716 53.7788 42.7459 54.0653 43.0096C54.2474 43.1765 54.7482 43.1291 55.0404 43.0134C55.5544 42.8085 55.5829 42.3039 55.5639 41.805C55.2964 34.7803 55.0271 27.7556 54.7786 20.729C54.733 19.4371 54.7729 18.1414 54.7729 16.8495ZM56.7799 11.4032C55.2547 11.4032 53.7788 11.4032 52.3067 11.4032C52.1872 12.8639 52.8398 13.617 54.2057 13.636C56.2013 13.6625 56.8634 13.1029 56.7799 11.4032Z" fill="white"/>
<path d="M63.0667 29.1365C63.2375 24.8321 63.4006 20.5278 63.5865 16.2253C63.6074 15.7625 63.5315 15.4684 63.099 15.1858C61.9513 14.4383 61.3879 13.3172 61.3613 11.9494C61.3385 10.7903 61.3385 9.62936 61.3594 8.47027C61.3993 6.30956 63.0914 4.60603 65.2407 4.54911C65.8079 4.53394 66.3827 4.51117 66.9424 4.57757C68.9115 4.80901 70.3893 6.44425 70.4348 8.43233C70.4614 9.61418 70.4633 10.7998 70.4329 11.9817C70.3988 13.3456 69.824 14.4611 68.6725 15.2066C68.2646 15.4703 68.1906 15.7492 68.2077 16.1893C68.5454 24.7259 68.8754 33.2625 69.1941 41.8011C69.2681 43.7911 68.0085 45.303 66.1987 45.4491C64.1765 45.6141 62.5507 44.0699 62.5963 41.9775C62.6456 39.8016 62.7367 37.6257 62.8201 35.4498C62.8998 33.346 62.9909 31.2403 63.0781 29.1365C63.0743 29.1365 63.0705 29.1365 63.0667 29.1365ZM65.9711 16.8476C65.9199 16.8513 65.8687 16.857 65.8174 16.8608C65.7264 19.2473 65.6334 21.6338 65.5443 24.0202C65.3185 29.9807 65.0909 35.9412 64.8727 41.9016C64.8443 42.6813 65.2483 43.1631 65.8857 43.1726C66.5269 43.1821 66.931 42.7022 66.931 41.932C66.931 41.8371 66.9234 41.7423 66.9215 41.6474C66.6654 34.765 66.4093 27.8807 66.1494 20.9983C66.0944 19.6153 66.0299 18.2324 65.9711 16.8476ZM63.6283 10.225C63.6283 10.7922 63.6093 11.3594 63.6321 11.9248C63.6719 12.9207 64.3472 13.5866 65.347 13.6321C65.6771 13.6473 66.0071 13.6435 66.3372 13.6359C67.4603 13.6093 68.147 12.9397 68.1641 11.8223C68.1811 10.76 68.1811 9.69765 68.1641 8.63532C68.147 7.51797 67.4603 6.84831 66.3391 6.81986C66.0318 6.81227 65.7245 6.81227 65.4191 6.81986C64.3378 6.85211 63.6567 7.52176 63.6264 8.59548C63.615 9.13803 63.6264 9.68058 63.6283 10.225Z" fill="white"/>
<path d="M45.4471 25.0331C45.4282 36.3091 36.2162 45.485 24.944 45.4547C13.6681 45.4243 4.50734 36.2066 4.54528 24.9307C4.58322 13.6813 13.7629 4.53764 25.0123 4.54713C36.2883 4.55471 45.4642 13.7553 45.4471 25.0331ZM24.9175 43.182C35.0135 43.1896 43.1688 35.0514 43.1726 24.963C43.1783 15.0017 35.0305 6.83684 25.0673 6.81787C15.0017 6.7989 6.8312 14.9201 6.81603 24.9592C6.80085 34.9831 14.9391 43.1744 24.9175 43.182Z" fill="white"/>
<path d="M26.1315 20.4955C31.8017 21.4706 34.4291 26.1942 34.0516 30.3221C33.6286 34.9471 29.8459 38.485 25.3082 38.6425C21.1954 38.7847 16.2119 35.833 15.8439 29.5462C14.4837 29.5462 13.1179 29.5481 11.752 29.5462C10.591 29.5443 10.2268 29.182 10.2249 28.021C10.223 24.8511 10.2002 21.6811 10.2496 18.5112C10.2572 18.0502 10.5057 17.502 10.8187 17.1529C11.733 16.1342 12.7517 15.2066 13.7022 14.2182C14.1119 13.7933 14.5634 13.6244 15.1496 13.6282C18.2949 13.6472 21.4401 13.6358 24.5873 13.6377C25.7786 13.6377 26.1277 13.9982 26.1296 15.2179C26.1334 16.9632 26.1315 18.7123 26.1315 20.4955ZM24.9971 22.7283C21.2353 22.734 18.1829 25.7844 18.1791 29.5424C18.1754 33.2947 21.2504 36.3736 24.9914 36.3641C28.7797 36.3546 31.8283 33.2739 31.8112 29.476C31.7941 25.7692 28.7171 22.7226 24.9971 22.7283ZM12.5488 20.4537C12.5488 22.7738 12.5488 25.0047 12.5488 27.2546C13.778 27.2546 14.9561 27.2546 16.1683 27.2546C17.3615 23.4624 19.9377 21.2088 23.8057 20.4993C23.8057 18.938 23.8057 17.4375 23.8057 15.9445C21.5369 15.9445 19.3231 15.9445 17.0428 15.9445C17.0428 16.9442 17.0447 17.9079 17.0428 18.8716C17.0409 20.1142 16.6957 20.4519 15.4303 20.4537C14.4856 20.4556 13.5409 20.4537 12.5488 20.4537ZM14.7284 16.5952C14.2163 17.1226 13.7097 17.6424 13.2374 18.1299C13.6908 18.1299 14.2163 18.1299 14.7284 18.1299C14.7284 17.5722 14.7284 17.0676 14.7284 16.5952Z" fill="white"/>
<path d="M42.188 25.0654C41.8806 26.6589 41.6568 28.2258 41.2622 29.7492C40.86 31.3047 39.3841 32.1299 37.931 31.7676C36.4286 31.3939 35.5502 29.973 35.9164 28.3814C36.4286 26.1524 36.4362 23.9423 35.924 21.7095C35.5521 20.0876 36.4001 18.6914 37.9007 18.3063C39.4069 17.9212 40.86 18.7236 41.2736 20.3361C41.6701 21.8841 41.8882 23.4757 42.188 25.0654ZM38.7069 25.0388C38.5229 26.2776 38.3218 27.486 38.1833 28.7001C38.153 28.9638 38.2725 29.4172 38.4527 29.4987C38.8947 29.6998 39.0541 29.2882 39.1565 28.9372C39.9229 26.3079 39.9419 23.6768 39.1129 21.0627C39.0389 20.8312 38.6784 20.6908 38.4489 20.5087C38.3522 20.7838 38.1492 21.0721 38.1776 21.3339C38.3199 22.5727 38.5248 23.8039 38.7069 25.0388Z" fill="white"/>
<path d="M26.1031 32.9495C24.2212 32.9343 22.696 31.3674 22.7283 29.4798C22.7586 27.6283 24.2971 26.1335 26.1619 26.1392C28.0077 26.1449 29.5405 27.6891 29.5367 29.5368C29.5329 31.4281 27.9887 32.9628 26.1031 32.9495ZM27.2622 29.5462C27.2641 28.9373 26.7614 28.4232 26.1505 28.4118C25.5435 28.4004 25.0199 28.8975 24.999 29.5064C24.9782 30.1438 25.5093 30.6864 26.1448 30.675C26.7557 30.6655 27.2603 30.1571 27.2622 29.5462Z" fill="white"/>
</svg>
