<svg width="50" height="50" viewBox="0 0 50 50" fill="none" xmlns="http://www.w3.org/2000/svg">
<path d="M23.1855 41.5939C23.904 41.8687 24.0198 42.0306 24.0212 42.7602C24.0226 44.814 24.024 46.8677 24.0212 48.9215C24.0198 49.7084 23.7352 49.9986 22.958 49.9986C19.2175 50.0014 15.4756 50.0014 11.735 49.9986C10.9272 49.9986 10.6537 49.7153 10.6523 48.888C10.6509 46.8873 10.6635 44.8851 10.6454 42.8844C10.6398 42.2482 10.7458 41.732 11.4825 41.6176C11.4825 40.9339 11.5062 40.2893 11.4769 39.6475C11.4406 38.8732 11.0486 38.2761 10.4751 37.771C8.72695 36.2279 6.99968 34.6611 5.24312 33.1291C4.42553 32.4162 3.91488 31.5609 3.63863 30.5117C2.49735 26.1768 1.32398 21.8517 0.161777 17.5224C-0.256785 15.9625 0.14643 14.6817 1.4356 13.6828C1.55977 13.5865 1.65744 13.3786 1.66162 13.2195C1.72022 11.4281 2.82941 10.0454 4.4325 9.79571C6.1207 9.53341 7.67078 10.5561 8.24979 12.2582C9.42176 15.6946 10.6175 19.1227 11.8173 22.5479C11.8829 22.7362 12.0615 22.9232 12.2373 23.0278C14.5994 24.43 16.9768 25.8057 19.3361 27.2107C21.8782 28.7245 23.1631 30.9791 23.1841 33.9356C23.1994 36.4748 23.1855 39.0155 23.1855 41.5939ZM21.5154 41.6204C21.5154 39.0211 21.5238 36.4804 21.5126 33.9384C21.5028 31.6265 20.5136 29.8504 18.5227 28.6659C16.1606 27.2623 13.7846 25.881 11.4113 24.4956C10.4431 23.9305 9.45803 24.1426 8.96274 25.0076C8.46325 25.881 8.7688 26.82 9.74405 27.3865C11.2174 28.2417 12.6963 29.0886 14.1696 29.9467C14.7333 30.2759 14.8952 30.7517 14.6175 31.1982C14.3524 31.6265 13.8808 31.7046 13.3381 31.3935C11.8299 30.5271 10.3217 29.6634 8.82182 28.7817C7.19501 27.826 6.65088 26.0959 7.40011 24.3714C7.46987 24.211 7.51591 23.9919 7.46568 23.8343C6.62716 21.2015 5.78027 18.5716 4.91385 15.9472C4.69341 15.2789 4.17718 14.8924 3.48655 14.7989C2.28668 14.6357 1.41607 15.7295 1.75092 16.9866C2.93684 21.4373 4.11719 25.8894 5.34915 30.3276C5.49705 30.8619 5.87375 31.4005 6.28534 31.7828C8.01958 33.3928 9.80126 34.9527 11.5801 36.5167C12.6391 37.4473 13.1777 38.5956 13.1581 40.0075C13.1511 40.5405 13.1567 41.0734 13.1567 41.619C15.9695 41.6204 18.7124 41.6204 21.5154 41.6204ZM12.3601 43.3365C12.3601 45.0177 12.3601 46.6585 12.3601 48.2867C15.7086 48.2867 19.0194 48.2867 22.3232 48.2867C22.3232 46.6166 22.3232 44.9884 22.3232 43.3365C18.9957 43.3365 15.6974 43.3365 12.3601 43.3365ZM3.37494 13.0591C5.42868 13.4944 6.06768 14.0776 6.73738 16.1258C6.86156 16.5053 6.98154 16.8861 7.10432 17.2656C7.70287 19.1129 8.30141 20.9588 8.90553 22.8227C9.2948 22.7056 9.64918 22.5995 10.0133 22.4893C9.44408 20.8416 8.88879 19.2343 8.3335 17.627C7.76705 15.9876 7.20338 14.3469 6.63274 12.7075C6.32998 11.8355 5.4803 11.3053 4.64736 11.4574C3.9107 11.5941 3.36657 12.2778 3.37494 13.0591Z" fill="white"/>
<path d="M38.2272 41.5936C38.9499 41.8685 39.0615 42.0275 39.0629 42.7656C39.0643 44.8193 39.0657 46.8731 39.0629 48.9268C39.0615 49.7109 38.7769 49.9983 37.9942 49.9983C34.2522 50.0011 30.5117 49.9997 26.7698 49.9983C25.9829 49.9983 25.6954 49.7137 25.694 48.9338C25.6913 46.8633 25.7038 44.7914 25.6871 42.721C25.6829 42.1294 25.8977 41.7499 26.5284 41.6104C26.5284 40.9365 26.5284 40.2626 26.5284 39.5873C26.5284 37.708 26.5186 35.8286 26.5312 33.9479C26.5493 30.9887 27.8287 28.7326 30.368 27.2174C32.7119 25.8194 35.0782 24.4591 37.4249 23.0653C37.6272 22.9453 37.8309 22.7276 37.9063 22.51C39.1117 19.0862 40.3046 15.6567 41.485 12.2231C42.0668 10.5294 43.582 9.54155 45.2674 9.79129C46.8705 10.0299 48.0034 11.4279 48.0578 13.2012C48.0634 13.3742 48.1764 13.5974 48.3117 13.7035C49.52 14.6522 49.9776 15.8758 49.5897 17.3533C48.3954 21.8891 47.1718 26.418 45.9524 30.9482C45.7334 31.7602 45.2646 32.4201 44.6368 32.9768C42.9053 34.5116 41.1948 36.0728 39.4396 37.5796C38.5969 38.3023 38.1407 39.1381 38.2216 40.2584C38.2537 40.6909 38.2272 41.1276 38.2272 41.5936ZM36.5557 41.6201C36.5557 41.0662 36.5641 40.5626 36.5543 40.0603C36.5236 38.6093 37.0733 37.4359 38.1672 36.4816C39.9377 34.9371 41.7054 33.387 43.4257 31.7853C43.8485 31.3919 44.2224 30.831 44.3745 30.2799C45.5981 25.8752 46.7658 21.4566 47.9434 17.0394C48.2238 15.9874 47.7704 15.0931 46.8454 14.8308C45.9803 14.5852 45.0595 15.1321 44.7456 16.0962C43.9224 18.6243 43.102 21.1539 42.3012 23.6889C42.2314 23.9094 42.2468 24.2066 42.3375 24.4186C43.0434 26.0594 42.5105 27.8048 40.9813 28.7298C40.3856 29.0898 39.78 29.4302 39.1773 29.779C38.2132 30.3357 37.2547 30.9008 36.2823 31.4421C35.7019 31.7658 35.0782 31.4979 34.9875 30.9105C34.9164 30.4459 35.1591 30.1641 35.5414 29.9464C37.0664 29.0744 38.5913 28.2038 40.1023 27.3095C40.9674 26.7975 41.2199 25.8334 40.7497 25.0116C40.2879 24.2038 39.2903 23.9289 38.4379 24.4256C35.9265 25.8836 33.4012 27.3207 30.9289 28.8428C29.1597 29.9311 28.2487 31.6053 28.211 33.6814C28.165 36.2402 28.1984 38.8004 28.1998 41.3592C28.1998 41.4415 28.2166 41.5239 28.2263 41.6229C31.0028 41.6201 33.7458 41.6201 36.5557 41.6201ZM37.3552 48.3046C37.3552 46.6219 37.3552 44.9812 37.3552 43.3544C34.0067 43.3544 30.6959 43.3544 27.3934 43.3544C27.3934 45.0244 27.3934 46.654 27.3934 48.3046C30.7196 48.3046 34.0178 48.3046 37.3552 48.3046ZM46.3487 13.0644C46.3278 12.2496 45.7892 11.5869 45.0511 11.4572C44.2196 11.3107 43.4076 11.8116 43.1062 12.6752C42.3068 14.9689 41.5143 17.2654 40.719 19.5619C40.3814 20.5372 40.0423 21.511 39.6977 22.5016C40.0995 22.6146 40.4428 22.7123 40.8153 22.8183C41.5966 20.4032 42.3765 18.0118 43.1425 15.6177C43.5248 14.4206 44.2935 13.6169 45.4934 13.2416C45.7697 13.1523 46.0641 13.1203 46.3487 13.0644Z" fill="white"/>
<path d="M24.8638 2.45815C26.199 1.17037 27.7449 0.414173 29.5293 0.107228C34.1014 -0.676878 38.707 2.90322 39.0739 7.51996C39.2902 10.242 38.4307 12.5427 36.504 14.4653C32.9071 18.0538 29.3187 21.6506 25.726 25.2419C25.02 25.9478 24.6977 25.9478 23.9904 25.2391C20.3126 21.5599 16.6041 17.9087 12.9654 14.1918C9.01282 10.1555 10.1485 3.48921 15.1713 0.923423C18.1807 -0.614094 21.8989 -0.14949 24.434 2.08005C24.5638 2.19306 24.6935 2.30747 24.8638 2.45815ZM24.8484 23.7043C24.921 23.6499 24.9796 23.6165 25.027 23.5704C28.582 20.0126 32.1732 16.4897 35.678 12.8831C38.1601 10.3285 38.015 6.16242 35.4841 3.63989C32.9504 1.11596 28.8596 1.04062 26.2311 3.47246C25.9632 3.72081 25.7176 3.99427 25.4456 4.23704C25.0758 4.5677 24.6419 4.5691 24.2736 4.23983C24.0141 4.00822 23.7797 3.75011 23.5272 3.51153C21.3492 1.45918 18.0579 1.1062 15.5131 2.65069C11.7698 4.92208 11.1377 9.97413 14.2421 13.1147C17.6673 16.5804 21.1274 20.0112 24.5736 23.456C24.6559 23.5383 24.748 23.6137 24.8484 23.7043Z" fill="white"/>
<path d="M27.3642 14.0608C27.3642 14.8659 27.3684 15.6095 27.3628 16.3545C27.3587 17.1052 27.0685 17.3996 26.3234 17.4023C25.3314 17.4065 24.3408 17.4079 23.3488 17.4023C22.6624 17.3982 22.3596 17.0968 22.3527 16.4187C22.3443 15.6555 22.3513 14.8924 22.3513 14.0622C21.5783 14.0622 20.8375 14.065 20.0952 14.0622C19.2846 14.0594 19.0111 13.7804 19.0084 12.9572C19.0056 11.9834 19.0028 11.0081 19.0097 10.0343C19.0153 9.3548 19.3195 9.05622 20.0059 9.05064C20.7677 9.04367 21.5295 9.04925 22.3499 9.04925C22.3499 8.26514 22.3471 7.52289 22.3499 6.78204C22.3527 5.99375 22.6331 5.71052 23.4144 5.70773C24.3883 5.70354 25.3635 5.70354 26.3374 5.70773C27.0573 5.71191 27.3559 6.0063 27.3628 6.71646C27.3698 7.47685 27.3642 8.23863 27.3642 9.04925C28.1567 9.04925 28.9004 9.04646 29.644 9.05064C30.4225 9.05483 30.7044 9.33945 30.7058 10.1277C30.7086 11.1016 30.7113 12.0768 30.7044 13.0507C30.7002 13.7636 30.4002 14.058 29.6817 14.0636C28.9366 14.065 28.1888 14.0608 27.3642 14.0608ZM25.6928 15.7225C25.6928 15.1589 25.6928 14.6412 25.6928 14.1236C25.6928 12.434 25.736 12.3894 27.4005 12.3894C27.9335 12.3894 28.4651 12.3894 28.998 12.3894C28.998 11.7978 28.998 11.2704 28.998 10.7179C28.4581 10.7179 27.9558 10.7179 27.4535 10.7179C25.7305 10.7179 25.6928 10.6816 25.6928 8.98367C25.6928 8.45349 25.6928 7.92192 25.6928 7.4029C25.0956 7.4029 24.5808 7.4029 24.0213 7.4029C24.0213 7.94704 24.0213 8.46466 24.0213 8.98228C24.0213 10.6705 23.9739 10.7179 22.3122 10.7179C21.7792 10.7179 21.2477 10.7179 20.7161 10.7179C20.7161 11.3095 20.7161 11.8369 20.7161 12.3894C21.2393 12.3894 21.7234 12.3894 22.209 12.3894C24.0046 12.3894 24.0213 12.4047 24.0213 14.1766C24.0213 14.6901 24.0213 15.2035 24.0213 15.7225C24.6073 15.7225 25.1096 15.7225 25.6928 15.7225Z" fill="white"/>
</svg>
