<svg width="58" height="50" viewBox="0 0 58 50" fill="none" xmlns="http://www.w3.org/2000/svg">
<path d="M0 12.0339C0.445756 10.9376 1.25745 10.531 2.43509 10.552C5.30842 10.6017 8.18475 10.5686 11.0596 10.5686C11.2102 10.5686 11.3608 10.5626 11.5098 10.5701C12.0866 10.6017 12.4962 10.9933 12.5053 11.5143C12.5143 12.055 12.0896 12.4796 11.4827 12.4842C9.81116 12.4962 8.13806 12.4887 6.46648 12.4887C4.98313 12.4887 3.49828 12.4887 1.96825 12.4887C1.96825 20.8225 1.96825 29.1323 1.96825 37.4796C8.6305 37.4796 15.2928 37.4796 22.0589 37.4796C17.7369 34.4105 15.4177 30.3099 15.4102 25.0316C15.4027 19.7367 17.7053 15.621 22.1146 12.4887C21.8059 12.4887 21.6297 12.4887 21.4535 12.4887C19.8181 12.4887 18.1841 12.4917 16.5487 12.4872C15.8289 12.4857 15.4087 12.1257 15.4087 11.5309C15.4087 10.9361 15.8289 10.5701 16.5457 10.5701C29.6051 10.5686 42.6646 10.5671 55.7225 10.5716C56.9032 10.5716 57.7209 11.3758 57.7209 12.5504C57.7269 20.8571 57.7269 29.1639 57.7209 37.4706C57.7194 38.6136 56.9047 39.4072 55.7617 39.4358C55.6111 39.4389 55.4605 39.4374 55.3114 39.4374C37.686 39.4374 20.0605 39.4313 2.4366 39.4524C1.26047 39.4539 0.448768 39.0669 0.00150593 37.9721C0 29.325 0 20.6794 0 12.0339ZM35.665 37.4706C42.4312 37.4706 49.104 37.4706 55.7692 37.4706C55.7692 29.1292 55.7692 20.8315 55.7692 12.5399C49.0708 12.5399 42.4086 12.5399 35.671 12.5399C44.553 18.41 44.5199 31.6381 35.665 37.4706ZM17.3303 24.1326C17.3212 27.5073 17.9914 29.8988 19.291 31.9875C23.0754 38.0715 30.9168 39.3455 36.1153 34.7238C41.4779 29.956 41.8695 21.33 36.9586 16.0969C33.1847 12.0745 27.405 11.2945 22.9143 14.3033C19.1449 16.8288 17.4523 20.5093 17.3303 24.1326Z" fill="white"/>
<path d="M49.872 1.91719C48.4354 2.39758 47.0529 2.86141 45.6705 3.32373C40.2506 5.13838 34.8308 6.95454 29.4094 8.76768C28.7468 8.98905 28.3357 8.89117 28.0541 8.46348C27.6686 7.87767 27.9682 7.22259 28.7558 6.95905C32.2195 5.79497 35.6846 4.6354 39.1498 3.47432C42.4373 2.37198 45.7247 1.26964 49.0137 0.171812C50.3871 -0.285992 51.3177 0.174824 51.7786 1.54071C52.4622 3.56468 53.1444 5.59016 53.8131 7.61865C53.9923 8.16229 53.7227 8.68184 53.2273 8.84749C52.7424 9.01013 52.2529 8.78575 52.0255 8.28578C51.9563 8.13368 51.9111 7.96803 51.8584 7.8084C51.2605 6.0314 50.6642 4.2559 50.0663 2.4789C50.0121 2.32078 49.9564 2.16266 49.872 1.91719Z" fill="white"/>
<path d="M7.85339 48.092C9.28854 47.6116 10.6725 47.1508 12.0549 46.687C17.4959 44.8648 22.9368 43.0396 28.3793 41.2189C29.0599 40.9915 29.59 41.2039 29.7692 41.755C29.953 42.3228 29.6698 42.7911 28.9952 43.0366C28.8898 43.0757 28.7829 43.1119 28.6759 43.1465C25.5632 44.1886 22.4519 45.2307 19.3391 46.2743C15.8544 47.4414 12.3697 48.61 8.88495 49.7787C7.2736 50.3193 6.41221 49.8856 5.86857 48.2607C5.22102 46.321 4.57798 44.3799 3.9229 42.4433C3.77984 42.0216 3.81598 41.615 4.16988 41.3771C4.41986 41.2084 4.84755 41.0789 5.08849 41.1828C5.38215 41.3093 5.66376 41.6632 5.77671 41.9809C6.43179 43.8182 7.03717 45.672 7.65912 47.5213C7.71334 47.6809 7.76755 47.839 7.85339 48.092Z" fill="white"/>
<path d="M5.76319 16.3333C5.76319 17.2625 5.7662 18.1224 5.76168 18.9807C5.75867 19.7623 5.42737 20.1734 4.80843 20.1734C4.19401 20.175 3.84463 19.7518 3.84162 18.9823C3.8371 17.8558 3.8356 16.7294 3.84162 15.6029C3.84614 14.7581 4.19551 14.4163 5.05088 14.4117C6.17732 14.4057 7.30376 14.4057 8.4302 14.4117C9.19371 14.4163 9.61236 14.7747 9.60031 15.3981C9.58826 16.0035 9.19521 16.3273 8.44526 16.3318C7.58537 16.3378 6.72398 16.3333 5.76319 16.3333Z" fill="white"/>
<path d="M5.76316 33.6713C6.74352 33.6713 7.62449 33.6652 8.50546 33.6728C9.20572 33.6788 9.59274 34.0161 9.60178 34.6049C9.61232 35.2088 9.1997 35.5838 8.48588 35.5898C7.3218 35.5989 6.15771 35.5989 4.99362 35.5898C4.21204 35.5838 3.84911 35.2269 3.84309 34.4528C3.83406 33.2707 3.83255 32.087 3.8446 30.9034C3.85062 30.2287 4.22861 29.8266 4.81141 29.8281C5.39872 29.8296 5.75412 30.2242 5.76014 30.9094C5.77069 31.8084 5.76316 32.7045 5.76316 33.6713Z" fill="white"/>
<path d="M51.9607 16.3333C51.0286 16.3333 50.1687 16.3363 49.3103 16.3318C48.5302 16.3287 48.1206 15.9944 48.1206 15.3755C48.1206 14.7611 48.5438 14.4147 49.3133 14.4117C50.4397 14.4072 51.5662 14.4057 52.6926 14.4117C53.5344 14.4162 53.8778 14.7671 53.8808 15.624C53.8868 16.7504 53.8868 17.8768 53.8808 19.0033C53.8763 19.7623 53.5118 20.1839 52.8914 20.1704C52.289 20.1568 51.9668 19.7608 51.9622 19.0123C51.9577 18.1524 51.9607 17.2895 51.9607 16.3333Z" fill="white"/>
<path d="M51.9607 33.6713C51.9607 32.709 51.9562 31.8296 51.9622 30.9501C51.9667 30.2288 52.3251 29.8222 52.929 29.8297C53.5043 29.8372 53.8732 30.2453 53.8792 30.9245C53.8898 32.1067 53.8898 33.2903 53.8792 34.474C53.8717 35.2194 53.5088 35.5839 52.7664 35.5914C51.5842 35.6034 50.4005 35.6019 49.2184 35.5914C48.5377 35.5854 48.1311 35.2209 48.1206 34.6442C48.11 34.0403 48.5181 33.6789 49.2365 33.6728C50.1174 33.6668 50.9969 33.6713 51.9607 33.6713Z" fill="white"/>
<path d="M27.8945 30.6249C27.8945 29.0692 27.9065 27.607 27.8749 26.1477C27.8719 26.0227 27.6023 25.845 27.4246 25.7908C25.6491 25.2547 24.5031 24.1087 24.1417 22.2865C23.7411 20.264 25.1431 18.1693 27.2424 17.5488C27.6038 17.4419 27.8824 17.3591 28.033 16.9088C28.1189 16.6513 28.6083 16.3712 28.9034 16.3848C29.1971 16.3983 29.5751 16.7115 29.7302 16.9962C29.8793 17.2687 29.9847 17.4148 30.2964 17.4961C32.1593 17.978 33.4273 19.4644 33.6456 21.3724C33.7209 22.029 33.4107 22.4958 32.84 22.5832C32.2873 22.6675 31.8536 22.3061 31.7572 21.6314C31.6352 20.7821 31.2693 20.0984 30.5118 19.6617C30.3266 19.5547 30.1127 19.4975 29.8296 19.3846C29.8296 20.9372 29.8175 22.3979 29.8492 23.8587C29.8522 23.9837 30.1217 24.1629 30.2979 24.2156C32.0764 24.7487 33.2164 25.8992 33.5794 27.7199C33.9769 29.7138 32.593 31.8191 30.5314 32.4425C30.1263 32.5645 29.8175 32.6624 29.6594 33.1473C29.5811 33.3867 29.0917 33.6533 28.8191 33.6247C28.5164 33.5931 28.1445 33.2949 27.9908 33.0103C27.8433 32.7362 27.7333 32.5916 27.4246 32.5118C25.5799 32.0314 24.3209 30.5721 24.0845 28.6897C23.9971 27.9895 24.2983 27.5121 24.8841 27.4247C25.4368 27.3419 25.8675 27.6988 25.9669 28.378C26.0873 29.2048 26.4352 29.8794 27.1641 30.3192C27.3629 30.4351 27.5948 30.4999 27.8945 30.6249ZM27.8719 19.4463C26.8012 19.6632 25.9669 20.6752 25.9865 21.663C26.0075 22.6856 26.8644 23.672 27.8719 23.806C27.8719 22.3648 27.8719 20.9282 27.8719 19.4463ZM29.8657 30.5481C30.8913 30.3779 31.7497 29.3599 31.7421 28.3614C31.7361 27.36 30.9018 26.3811 29.8657 26.1824C29.8657 27.6371 29.8657 29.0888 29.8657 30.5481Z" fill="white"/>
</svg>
