<svg width="50" height="50" viewBox="0 0 50 50" fill="none" xmlns="http://www.w3.org/2000/svg">
<path d="M37.0773 38.7252C41.4077 38.7252 45.6573 38.7252 49.9487 38.7252C49.9487 39.2518 49.9487 39.7623 49.9487 40.328C45.6883 40.328 41.4144 40.328 37.0827 40.328C37.0827 41.3517 37.084 42.3202 37.0827 43.29C37.0813 44.1156 36.8227 44.3729 36.0011 44.3769C35.9849 44.3769 35.9674 44.3783 35.9512 44.3769C35.1188 44.2773 34.5248 44.381 34.0776 45.3212C33.5429 46.4472 32.398 46.8944 31.1426 46.7745C29.8927 46.656 28.97 45.9906 28.4918 44.8161C28.3423 44.4497 28.1632 44.3648 27.7941 44.3675C25.8949 44.3864 23.9957 44.3823 22.0979 44.3702C21.7962 44.3689 21.6332 44.4227 21.5079 44.7447C21.0217 46.0054 19.8579 46.788 18.5487 46.7947C17.2179 46.8014 16.0393 46.0135 15.5436 44.7366C15.4292 44.4429 15.2918 44.3554 14.9995 44.3716C14.5967 44.3931 14.1927 44.385 13.7899 44.3743C13.1932 44.3594 12.8902 44.0645 12.8848 43.4691C12.8753 42.4468 12.8821 41.4244 12.8821 40.3482C8.5705 40.3482 4.29664 40.3482 -0.00146484 40.3482C-0.00146484 39.796 -0.00146484 39.2976 -0.00146484 38.7454C4.27509 38.7454 8.54895 38.7454 12.8821 38.7454C12.8821 37.4536 12.8632 36.2144 12.8902 34.978C12.9023 34.4459 12.9467 33.899 13.0814 33.3872C13.6148 31.3668 15.4642 29.9242 17.5479 29.8622C18.1177 29.8461 18.6888 29.8596 19.334 29.8596C19.334 29.1201 19.3326 28.4049 19.334 27.691C19.3366 26.8963 19.5993 26.6309 20.3873 26.6282C21.0904 26.6255 21.7935 26.6282 22.5599 26.6282C22.5599 26.1487 22.5774 25.7002 22.5558 25.253C22.5303 24.7344 22.7202 24.3721 23.2819 24.1916C22.0454 22.248 20.8277 20.3339 19.5656 18.3499C19.2908 19.0355 19.0524 19.6416 18.8059 20.2451C18.4396 21.1435 17.7675 21.2404 17.1829 20.4754C16.6118 19.7292 16.0528 18.9749 15.4359 18.1519C14.9443 18.6583 14.4823 19.1392 14.0149 19.612C13.4114 20.2208 12.808 20.8296 12.1965 21.429C11.6698 21.9462 11.2159 21.9153 10.7633 21.3253C10.1828 20.5683 9.61439 19.8019 9.01095 18.9991C7.56164 21.2782 6.14869 23.5006 4.68995 25.7931C9.05271 25.7931 13.3535 25.7931 17.6893 25.7931C17.6893 26.3602 17.6893 26.8707 17.6893 27.4068C11.8045 27.4068 5.92914 27.4068 0.0146985 27.4068C0.0146985 26.9057 0.0146985 26.3966 0.0146985 25.8201C0.705682 25.8201 1.40879 25.781 2.10381 25.8335C2.61431 25.8726 2.87157 25.6692 3.13288 25.2557C6.59857 19.7777 10.0831 14.3118 13.5623 8.84315C13.635 8.73001 13.7024 8.61282 13.7818 8.50506C14.1859 7.95955 14.8163 7.95012 15.2056 8.50506C15.5234 8.95764 15.8076 9.4358 16.1053 9.9032C18.3951 13.5022 20.6836 17.1013 22.9747 20.7003C23.0542 20.8256 23.1431 20.9468 23.2711 21.1354C23.3963 20.9347 23.5001 20.7744 23.597 20.6101C26.8472 15.0809 30.0974 9.55164 33.3462 4.02243C33.3893 3.94969 33.4284 3.87561 33.4715 3.80422C33.9402 3.03512 34.6056 3.02569 35.0663 3.79479C36.1102 5.53774 37.1433 7.28608 38.1831 9.03307C38.268 9.1745 38.3582 9.31323 38.3919 9.36711C39.0371 9.1947 39.6324 9.04788 40.2184 8.87009C40.3315 8.83641 40.45 8.70172 40.4972 8.58588C41.0548 7.23624 42.0556 6.5035 43.5143 6.46444C44.8909 6.42807 45.9712 7.21469 46.5786 8.59127C46.6352 8.71923 46.8184 8.85392 46.9598 8.87413C48.7917 9.12466 50.0241 10.5282 49.9245 12.2738C49.8221 14.0585 48.4347 15.3247 46.5679 15.3314C45.0566 15.3354 43.5453 15.3327 41.9627 15.3327C42.0489 15.5051 42.1041 15.6358 42.1755 15.757C44.0935 18.9924 46.017 22.2237 47.9283 25.4631C48.0845 25.7271 48.2475 25.847 48.56 25.8281C49.0112 25.8012 49.4638 25.8214 49.9527 25.8214C49.9527 26.3548 49.9527 26.8639 49.9527 27.4041C44.3346 27.4041 38.7165 27.4041 33.0728 27.4041C33.0728 26.8882 33.0728 26.3898 33.0728 25.847C37.4356 25.847 41.7956 25.847 46.2837 25.847C44.2255 22.3786 42.2199 18.9978 40.1699 15.5442C39.6176 16.2783 39.099 16.9652 38.5832 17.6535C37.6848 18.8537 37.4773 18.8712 36.4213 17.8152C35.4838 16.8777 34.5518 15.9348 33.5631 14.9394C33.0418 15.6331 32.5556 16.2877 32.0599 16.9356C31.7703 17.3141 31.5481 17.8165 30.9446 17.737C30.3425 17.6576 30.2523 17.1174 30.0705 16.677C29.7714 15.9483 29.4832 15.2142 29.1599 14.4047C29.0508 14.5609 28.9646 14.6687 28.8959 14.7845C27.4143 17.302 25.9394 19.8248 24.4483 22.3369C24.2867 22.6089 24.3365 22.7827 24.4537 23.0575C24.8672 24.0232 25.542 24.3344 26.5778 24.2307C27.5921 24.1283 28.6252 24.2037 29.6516 24.2105C30.3385 24.2145 30.6241 24.5041 30.6254 25.2005C30.6294 26.7279 30.6268 28.2567 30.6268 29.8097C31.2113 29.8555 31.7784 29.8636 32.3347 29.9485C34.9828 30.3498 36.9951 32.6235 37.0692 35.3053C37.1042 36.4232 37.0773 37.5466 37.0773 38.7252ZM15.3847 42.7512C15.4318 42.6596 15.4588 42.6178 15.4763 42.5707C16.003 41.1874 17.1061 40.3657 18.4638 40.3442C19.8391 40.3226 20.9974 41.0971 21.5308 42.4522C21.648 42.7485 21.8096 42.766 22.0588 42.7646C23.9903 42.7593 25.9219 42.7539 27.8534 42.77C28.1861 42.7727 28.3423 42.6892 28.4703 42.3592C28.9525 41.1146 30.1338 40.3388 31.4484 40.3428C32.7428 40.3469 33.8904 41.12 34.4009 42.3336C34.4588 42.471 34.5154 42.6097 34.5679 42.735C34.871 42.735 35.1498 42.735 35.4353 42.735C35.4353 41.3908 35.4353 40.0748 35.4353 38.7588C35.3545 38.7454 35.306 38.7319 35.2576 38.7319C29.3283 38.7305 23.4004 38.7279 17.4711 38.7359C17.3028 38.7359 17.1088 38.8046 16.9714 38.903C16.2225 39.4417 15.483 39.9967 14.7503 40.5583C14.6412 40.6419 14.5119 40.7833 14.5078 40.9032C14.4836 41.5174 14.4971 42.1329 14.4971 42.7512C14.8365 42.7512 15.1045 42.7512 15.3847 42.7512ZM38.6397 14.8896C38.4512 14.7293 38.2801 14.5946 38.1225 14.4464C37.3372 13.7056 36.8847 12.7574 37.1446 11.7297C37.3534 10.9013 37.119 10.3288 36.7082 9.69981C36.323 9.10984 35.9849 8.49025 35.6239 7.88278C35.1902 7.15273 34.7565 6.42403 34.3214 5.69399C34.2541 5.73709 34.215 5.74921 34.2002 5.7748C32.9044 7.97302 31.6087 10.1726 30.3196 12.3735C30.2644 12.4678 30.2025 12.6106 30.2348 12.6968C30.5567 13.5467 30.8988 14.3899 31.2652 15.3098C31.7717 14.635 32.2121 14.0437 32.6579 13.4564C33.186 12.7587 33.6143 12.725 34.2258 13.3325C34.7982 13.9009 35.368 14.472 35.9364 15.0445C36.4186 15.5294 36.8981 16.0183 37.4046 16.5329C37.8356 15.9604 38.2181 15.4513 38.6397 14.8896ZM43.4861 13.7177C44.5434 13.7177 45.6021 13.7137 46.6595 13.7191C47.3639 13.7218 47.8973 13.4282 48.2111 12.7978C48.5075 12.1997 48.4307 11.6125 48.0104 11.1006C47.5646 10.5578 46.9922 10.3881 46.2958 10.5699C45.5603 10.7625 45.1738 10.446 45.1468 9.68634C45.1145 8.76772 44.4383 8.07674 43.5615 8.06731C42.6509 8.05653 41.9586 8.74347 41.9263 9.68768C41.9007 10.4474 41.5141 10.7625 40.7773 10.5699C40.081 10.3881 39.5058 10.5565 39.0613 11.0979C38.6411 11.6084 38.567 12.1997 38.862 12.7964C39.1745 13.4268 39.7079 13.7218 40.4123 13.7191C41.4373 13.7151 42.461 13.7177 43.4861 13.7177ZM11.5782 19.7197C11.6577 19.6713 11.6914 19.6591 11.7143 19.6362C12.7002 18.6516 13.6862 17.667 14.6708 16.6824C15.4359 15.916 15.7942 15.9375 16.4353 16.7915C16.8542 17.3491 17.2745 17.9068 17.7459 18.5331C17.9655 17.9862 18.1311 17.5161 18.3439 17.069C18.4854 16.7713 18.4328 16.5517 18.2604 16.285C17.0872 14.4667 15.9329 12.6362 14.7705 10.811C14.6937 10.6898 14.6021 10.5794 14.5186 10.4649C14.458 10.5039 14.4203 10.5147 14.4055 10.539C12.9615 12.8018 11.5176 15.0633 10.0858 17.333C10.0266 17.4272 10.0292 17.632 10.0926 17.7209C10.5667 18.3876 11.0664 19.0382 11.5782 19.7197ZM14.9698 33.0518C21.5456 33.0518 28.0339 33.0518 34.5962 33.0518C33.9874 32.2437 33.2317 31.7884 32.3293 31.581C31.9737 31.4988 31.5979 31.4732 31.2315 31.4718C26.7812 31.4651 22.3309 31.4678 17.8806 31.4665C16.6495 31.4665 15.6891 31.9541 14.9698 33.0518ZM14.4957 34.7193C14.4957 35.4076 14.4957 36.0595 14.4957 36.7115C14.4957 37.3526 14.4957 37.9951 14.4957 38.6874C14.625 38.6134 14.6776 38.5985 14.7085 38.5649C15.9747 37.1977 17.5748 36.9189 19.3366 37.1061C19.8606 37.1627 20.3967 37.1142 20.9233 37.1142C20.9233 36.2737 20.9233 35.5086 20.9233 34.718C18.7898 34.7193 16.6791 34.7193 14.4957 34.7193ZM28.9969 25.8537C27.3671 25.8537 25.7831 25.8537 24.1978 25.8537C24.1978 26.1177 24.1978 26.3467 24.1978 26.6269C24.9346 26.6269 25.6511 26.6242 26.3677 26.6282C27.1247 26.6323 27.3981 26.903 27.4022 27.6573C27.4062 28.3739 27.4035 29.0904 27.4035 29.8259C27.9611 29.8259 28.4703 29.8259 28.9969 29.8259C28.9969 28.4924 28.9969 27.1899 28.9969 25.8537ZM20.1408 43.5526C20.1287 42.6704 19.4067 41.9578 18.5258 41.9578C17.6287 41.9592 16.8973 42.7121 16.9189 43.6105C16.9404 44.4874 17.6786 45.1932 18.5595 45.1797C19.4309 45.169 20.1515 44.4268 20.1408 43.5526ZM31.4524 41.9592C30.5742 41.9497 29.8415 42.6623 29.8253 43.5405C29.8092 44.4389 30.5446 45.1824 31.4457 45.1811C32.3185 45.1784 33.0486 44.447 33.0472 43.5728C33.0472 42.6906 32.3333 41.9686 31.4524 41.9592ZM20.9718 29.8191C22.5963 29.8191 24.1803 29.8191 25.7481 29.8191C25.7481 29.2736 25.7481 28.7645 25.7481 28.2675C24.1358 28.2675 22.5653 28.2675 20.9718 28.2675C20.9718 28.7901 20.9718 29.2871 20.9718 29.8191ZM22.5922 34.7193C22.5922 35.5208 22.5922 36.298 22.5922 37.0832C23.6671 37.0832 24.7123 37.0832 25.7522 37.0832C25.7522 36.2724 25.7522 35.4952 25.7522 34.7193C24.6813 34.7193 23.6469 34.7193 22.5922 34.7193ZM30.6065 34.7234C29.5371 34.7234 28.4918 34.7234 27.4372 34.7234C27.4372 35.5289 27.4372 36.306 27.4372 37.0792C28.5161 37.0792 29.5613 37.0792 30.6065 37.0792C30.6065 36.2764 30.6065 35.51 30.6065 34.7234ZM35.4125 37.09C35.4125 36.2872 35.4125 35.51 35.4125 34.7315C34.3255 34.7315 33.2964 34.7315 32.2848 34.7315C32.2848 35.545 32.2848 36.3222 32.2848 37.09C33.357 37.09 34.3901 37.09 35.4125 37.09Z" fill="white"/>
<path d="M49.9662 48.4434C49.9662 48.9794 49.9662 49.4778 49.9662 49.9991C33.3125 49.9991 16.6845 49.9991 0.0146484 49.9991C0.0146484 49.4967 0.0146484 48.9875 0.0146484 48.4434C16.6481 48.4434 33.2883 48.4434 49.9662 48.4434Z" fill="white"/>
<path d="M3.29174 2.40317C3.67428 1.23402 4.41914 0.421807 5.62466 0.107968C7.20193 -0.30285 8.79671 0.498583 9.40688 2.0112C9.52137 2.29541 9.63721 2.41259 9.95913 2.45031C11.6927 2.65235 12.917 4.11917 12.8174 5.82306C12.715 7.56736 11.3438 8.86447 9.56178 8.8739C7.4794 8.88467 5.39702 8.88467 3.31599 8.8739C1.50973 8.86581 0.12642 7.55389 0.0388688 5.79074C-0.0486827 4.05183 1.24169 2.60117 3.03044 2.42741C3.1126 2.41933 3.19476 2.41259 3.29174 2.40317ZM6.40589 7.26295C7.42956 7.26295 8.45459 7.25352 9.47827 7.26699C10.1989 7.27642 10.7592 7.01242 11.0919 6.36319C11.3963 5.76784 11.329 5.17922 10.9155 4.66334C10.4629 4.09628 9.87562 3.9333 9.15904 4.12052C8.45459 4.30505 8.06128 3.97909 8.03704 3.25309C8.00606 2.30214 7.3245 1.60981 6.42205 1.61251C5.52229 1.61385 4.85016 2.30349 4.81918 3.25982C4.79494 3.98044 4.39759 4.30505 3.69179 4.11917C2.97521 3.9306 2.38794 4.10032 1.93672 4.66469C1.53667 5.16441 1.46529 5.74225 1.74545 6.32143C2.06064 6.97335 2.60884 7.27103 3.33485 7.26564C4.35718 7.25756 5.38221 7.26295 6.40589 7.26295Z" fill="white"/>
<path d="M8.88574 30.6821C9.95387 30.6821 10.987 30.6821 12.0484 30.6821C12.0484 31.1994 12.0484 31.6964 12.0484 32.2338C11.0153 32.2338 9.96869 32.2338 8.88574 32.2338C8.88574 31.7422 8.88574 31.233 8.88574 30.6821Z" fill="white"/>
<path d="M40.2856 32.2555C39.2174 32.2555 38.183 32.2555 37.1162 32.2555C37.1162 31.7355 37.1162 31.2264 37.1162 30.689C38.1695 30.689 39.2148 30.689 40.2856 30.689C40.2856 31.2062 40.2856 31.7032 40.2856 32.2555Z" fill="white"/>
<path d="M6.38966 36.2894C5.32962 36.2894 4.29651 36.2894 3.23242 36.2894C3.23242 35.7628 3.23242 35.2536 3.23242 34.7202C4.28304 34.7202 5.31615 34.7202 6.38966 34.7202C6.38966 35.2213 6.38966 35.7291 6.38966 36.2894Z" fill="white"/>
<path d="M43.5615 34.7139C44.6297 34.7139 45.6641 34.7139 46.7309 34.7139C46.7309 35.2338 46.7309 35.7429 46.7309 36.2804C45.6776 36.2804 44.6323 36.2804 43.5615 36.2804C43.5615 35.7631 43.5615 35.2661 43.5615 34.7139Z" fill="white"/>
<path d="M2.41895 45.1486C2.41895 44.6139 2.41895 44.1169 2.41895 43.5942C3.4763 43.5942 4.50941 43.5942 5.58292 43.5942C5.58292 44.0953 5.58292 44.6044 5.58292 45.1486C4.54847 45.1486 3.50324 45.1486 2.41895 45.1486Z" fill="white"/>
<path d="M7.25732 45.1458C7.25732 44.6191 7.25732 44.1235 7.25732 43.5981C8.32276 43.5981 9.36799 43.5981 10.4388 43.5981C10.4388 44.114 10.4388 44.6111 10.4388 45.1458C9.39493 45.1458 8.3497 45.1458 7.25732 45.1458Z" fill="white"/>
<path d="M40.333 45.1484C40.333 44.6163 40.333 44.1193 40.333 43.5967C41.389 43.5967 42.4221 43.5967 43.497 43.5967C43.497 44.095 43.497 44.6028 43.497 45.1484C42.4652 45.1484 41.42 45.1484 40.333 45.1484Z" fill="white"/>
<path d="M48.3555 43.605C48.3555 44.137 48.3555 44.634 48.3555 45.1836C47.8194 45.1836 47.3049 45.1836 46.7904 45.1836C46.2718 45.1836 45.7519 45.1836 45.1929 45.1836C45.1929 44.6596 45.1929 44.1505 45.1929 43.605C46.2233 43.605 47.2685 43.605 48.3555 43.605Z" fill="white"/>
</svg>
