<svg width="51" height="50" viewBox="0 0 51 50" fill="none" xmlns="http://www.w3.org/2000/svg">
<path d="M50.0013 25C44.1935 25 38.3856 25 32.5082 25C32.5082 25.8516 32.5777 26.6809 32.4901 27.4949C32.3927 28.3937 32.7057 28.8849 33.5197 29.294C35.0114 30.0454 36.4348 30.9317 37.9111 31.7749C37.6287 32.2689 37.3643 32.7322 37.086 33.2178C35.5652 32.351 34.0763 31.5022 32.5137 30.6117C32.5137 31.5495 32.5137 32.4025 32.5137 33.2888C31.953 33.2888 31.4409 33.2888 30.8621 33.2888C30.8621 32.4386 30.8621 31.5732 30.8621 30.5922C29.2758 31.4952 27.7884 32.3426 26.2481 33.2206C25.9767 32.7475 25.7138 32.2898 25.4285 31.793C25.6011 31.6873 25.7472 31.594 25.8974 31.5078C27.4211 30.6367 28.9419 29.7587 30.4739 28.9016C30.7508 28.7471 30.8579 28.5774 30.851 28.2546C30.8287 27.186 30.8426 26.1159 30.8426 25.0042C27.2137 25.0042 23.6419 25.0042 20.0381 25.0042C20.0381 24.4351 20.0381 23.9105 20.0381 23.3456C28.9057 23.3456 37.7525 23.3456 46.6355 23.3456C46.6355 17.2288 46.6355 11.151 46.6355 5.03284C36.6811 5.03284 26.717 5.03284 16.6986 5.03284C16.6986 8.32498 16.6986 11.6185 16.6986 14.9594C16.1226 14.9594 15.5994 14.9594 15.0192 14.9594C15.0192 11.6589 15.0192 8.36395 15.0192 4.99109C14.7144 4.99109 14.4626 4.99944 14.2093 4.9897C13.682 4.96883 13.3633 4.70168 13.3522 4.18823C13.3286 3.06534 13.3105 1.94106 13.3675 0.82095C13.3814 0.539879 13.6931 0.272722 13.867 0C25.9113 0 37.9557 0 50 0C50 1.46519 50 2.93037 50 4.39417C49.6813 5.16363 48.9619 4.95213 48.3692 5.00918C48.3692 11.1385 48.3692 17.2205 48.3692 23.34C48.9341 23.34 49.467 23.34 50 23.34C50.0013 23.8938 50.0013 24.4462 50.0013 25ZM48.3149 1.6906C37.2001 1.6906 26.1298 1.6906 15.0456 1.6906C15.0456 2.243 15.0456 2.76757 15.0456 3.3005C26.1521 3.3005 37.2224 3.3005 48.3149 3.3005C48.3149 2.75923 48.3149 2.24578 48.3149 1.6906Z" fill="white"/>
<path d="M50.0012 50C49.4669 50 48.9326 50 48.337 50C48.337 49.2402 48.3384 48.5139 48.337 47.7876C48.3342 46.0024 47.3421 45.0089 45.5569 45.0075C44.0277 45.0061 42.4971 45.0019 40.968 45.0089C39.3915 45.0158 38.3701 46.0191 38.3409 47.5914C38.327 48.3706 38.3381 49.1498 38.3381 49.9638C37.7732 49.9638 37.2486 49.9638 36.6642 49.9638C36.6642 49.2472 36.6322 48.5334 36.6712 47.8238C36.7686 46.0538 35.4551 44.9115 33.8257 44.9922C32.3327 45.0659 30.8313 45.0047 29.3341 45.0089C27.6936 45.0144 26.6695 46.0497 26.6653 47.7027C26.6626 48.4485 26.6653 49.1943 26.6653 49.9693C26.1032 49.9693 25.5772 49.9693 25.0012 49.9693C25.0012 49.1943 25.004 48.4346 25.0012 47.6749C24.9956 46.0497 23.9715 45.0144 22.3547 45.0089C20.7754 45.0033 19.1975 45.0019 17.6182 45.0089C16.0514 45.0158 15.0301 46.0344 15.0093 47.6067C14.9995 48.3845 15.0079 49.1623 15.0079 49.9693C14.4346 49.9693 13.9086 49.9693 13.4035 49.9693C13.4035 48.8729 13.2644 47.7806 13.4341 46.7384C13.7277 44.9449 14.9174 43.8721 16.5955 43.4282C16.3617 42.7686 15.993 42.1188 15.9206 41.437C15.8121 40.4115 15.7968 39.3485 15.9443 38.33C16.2295 36.3639 18.1845 34.8861 20.1562 35.0058C22.3004 35.1352 23.9966 36.7312 24.1301 38.785C24.1788 39.5308 24.2359 40.2947 24.126 41.0252C24.0035 41.8392 23.6946 42.6253 23.4609 43.4463C24.3305 43.655 25.1598 44.1615 25.8277 45.013C26.4914 44.2004 27.304 43.6453 28.3685 43.4212C28.2961 43.2904 28.2446 43.1805 28.1792 43.0789C27.7576 42.4194 27.503 41.7042 27.5183 40.918C27.535 40.0094 27.471 39.0786 27.6477 38.1992C28.0484 36.1997 29.9714 34.8416 31.9639 35.0197C34.0956 35.2103 35.7125 36.83 35.8238 38.9213C35.8614 39.6351 35.8628 40.3545 35.8182 41.0683C35.7932 41.483 35.6833 41.9046 35.5427 42.2983C35.4092 42.6754 35.1865 43.0205 34.9862 43.4129C35.9936 43.6439 36.8256 44.1726 37.5061 45.0089C38.1753 44.1768 38.9935 43.6494 39.9369 43.4407C39.699 42.7742 39.3275 42.1272 39.2579 41.4496C39.1507 40.4074 39.1313 39.3262 39.2899 38.2952C39.5918 36.3291 41.5635 34.8708 43.531 35.0114C45.6989 35.1658 47.3686 36.7896 47.4743 38.874C47.5091 39.5725 47.5147 40.2752 47.4771 40.9723C47.4535 41.405 47.3672 41.8461 47.2294 42.2566C47.0972 42.6504 46.8621 43.008 46.6562 43.4129C47.7206 43.6675 48.6376 44.1851 49.2206 45.116C49.5587 45.6545 49.7466 46.2876 50.0026 46.8776C50.0012 47.917 50.0012 48.9578 50.0012 50ZM22.491 39.9983C22.491 39.7061 22.5008 39.4125 22.4896 39.1203C22.4326 37.7275 21.3793 36.6853 20.0226 36.67C18.6562 36.6547 17.5528 37.7191 17.5013 39.1245C17.4791 39.7089 17.4791 40.2961 17.5013 40.8819C17.5556 42.2803 18.6743 43.3586 20.0268 43.3391C21.3793 43.3197 22.434 42.2691 22.4896 40.8777C22.5008 40.5841 22.491 40.2919 22.491 39.9983ZM34.2097 40.0303C34.1958 40.0289 34.1819 40.0289 34.168 40.0275C34.168 39.7019 34.1847 39.3763 34.1652 39.0521C34.0831 37.6815 32.9658 36.6407 31.6217 36.6714C30.2789 36.702 29.2256 37.74 29.1839 39.0966C29.1644 39.7311 29.1616 40.367 29.1894 41.0001C29.2451 42.2496 30.2372 43.2306 31.5201 43.335C32.6791 43.4296 33.8285 42.5989 34.0789 41.4357C34.1777 40.9765 34.1694 40.4978 34.2097 40.0303ZM45.8241 40.0136C45.8241 39.7214 45.8324 39.4278 45.8227 39.1356C45.7782 37.7302 44.6901 36.6588 43.3223 36.6686C41.9503 36.6783 40.8692 37.7525 40.833 39.1565C40.8191 39.7089 40.8205 40.2627 40.8316 40.8165C40.8622 42.2385 41.9698 43.3461 43.3431 43.3391C44.7095 43.3322 45.7823 42.2538 45.8227 40.8443C45.831 40.5674 45.8241 40.2905 45.8241 40.0136Z" fill="white"/>
<path d="M3.29206 31.658C2.52816 31.658 1.78374 31.6622 1.03932 31.6566C0.272632 31.6525 0.00269296 31.3728 0.00269296 30.5797C0.00130152 27.3905 -0.00148136 24.1999 0.00269296 21.0107C0.00686728 18.6063 1.55276 16.9129 3.93908 16.682C3.9836 16.6778 4.02674 16.6583 4.10883 16.6361C3.94464 16.3091 3.73871 16.0113 3.63992 15.6815C3.16683 14.1022 3.10421 12.4882 3.6594 10.9367C4.32311 9.08331 6.28365 8.06756 8.27202 8.40568C10.1101 8.71737 11.5349 10.3273 11.6421 12.2461C11.6797 12.9279 11.7339 13.6236 11.6365 14.2929C11.5182 15.0929 11.2455 15.8708 11.0382 16.6639C12.8443 16.7849 14.194 17.752 15.0094 19.6026C15.2904 18.8401 15.5451 18.1499 15.8011 17.4598C16.0488 16.7919 16.206 16.6778 16.9115 16.6764C17.8883 16.6736 18.8651 16.6694 19.8405 16.6778C20.6739 16.6848 21.0162 17.194 20.7059 17.9774C19.8558 20.1216 19.0014 22.2644 18.1387 24.4045C17.5975 25.7472 16.604 26.5487 15.1555 26.6447C13.7084 26.7407 12.6175 26.0909 11.9037 24.8219C11.8647 24.7523 11.816 24.6883 11.7701 24.6243C11.7645 24.616 11.7423 24.6201 11.6908 24.6132C11.6824 24.7718 11.6685 24.9276 11.6685 25.0849C11.6671 29.8046 11.6616 34.523 11.6797 39.2428C11.681 39.5586 11.8091 39.9051 11.9705 40.182C12.3225 40.7845 12.7441 41.3466 13.1212 41.9352C13.5818 42.6532 13.2228 43.3364 12.367 43.3392C9.12915 43.3503 5.88987 43.3433 2.65199 43.3447C2.26657 43.3447 1.94932 43.2279 1.76147 42.8647C1.57919 42.514 1.69468 42.2065 1.89644 41.9074C2.31527 41.2868 2.73548 40.669 3.13761 40.0373C3.2364 39.8814 3.32128 39.6839 3.32267 39.5058C3.3338 36.9831 3.33102 34.4604 3.32823 31.9391C3.32684 31.8584 3.30875 31.7819 3.29206 31.658ZM17.4416 21.6717C17.1007 21.6717 16.853 21.7037 16.6165 21.6647C16.1587 21.591 15.9333 21.7774 15.8317 22.2143C15.7329 22.6387 15.4463 22.9073 15.0038 22.9101C14.5585 22.9128 14.3067 22.629 14.1634 22.2213C13.9171 21.5158 13.6625 20.8132 13.3939 20.1174C13.0544 19.2394 12.4352 18.5674 11.5085 18.4547C10.4775 18.3294 9.41857 18.4254 8.31376 18.4254C8.31376 21.1541 8.31376 23.8924 8.31376 26.6391C7.74327 26.6391 7.22983 26.6391 6.66212 26.6391C6.66212 23.8743 6.66212 21.1346 6.66212 18.3461C5.76743 18.3461 4.92561 18.328 4.08518 18.3503C2.75774 18.3851 1.69608 19.4189 1.6766 20.7491C1.64737 22.6679 1.67103 24.5881 1.67381 26.5083C1.67381 26.5515 1.70582 26.5946 1.71834 26.6252C2.25961 26.6252 2.78557 26.6252 3.32963 26.6252C3.32963 26.4081 3.32963 26.23 3.32963 26.0505C3.32963 24.3585 3.32545 22.6666 3.33241 20.9746C3.33519 20.3818 3.64687 20.0256 4.14084 20.0117C4.66541 19.9978 4.99101 20.3512 4.9924 20.9704C4.99657 23.2315 4.99379 25.4926 4.99518 27.7537C4.99518 27.9276 4.99518 28.1015 4.99518 28.2977C6.683 28.2977 8.31515 28.2977 9.99601 28.2977C9.99601 28.0946 9.99601 27.9192 9.99601 27.7439C9.99601 25.6122 9.99601 23.4819 9.99741 21.3502C9.99741 21.1388 9.99045 20.9259 10.0197 20.7171C10.0739 20.3428 10.291 20.091 10.6695 20.0186C11.041 19.9477 11.3429 20.0757 11.5461 20.4013C11.6143 20.5112 11.6699 20.6295 11.7284 20.745C12.2738 21.8345 12.8123 22.9268 13.3661 24.0121C13.6889 24.6438 14.2204 24.9903 14.9342 24.9903C15.6049 24.9889 16.1531 24.6897 16.4412 24.0844C16.8002 23.3303 17.0868 22.5371 17.4416 21.6717ZM9.99462 30.0231C8.28454 30.0231 6.66491 30.0231 4.99379 30.0231C4.99379 30.2262 4.99379 30.4016 4.99379 30.5769C4.99379 33.5713 4.98544 36.5656 5.00214 39.56C5.00492 40.0582 4.90056 40.4812 4.59444 40.8722C4.41356 41.1031 4.2772 41.3689 4.10466 41.6444C4.99379 41.6444 5.80082 41.6444 6.67465 41.6444C6.67465 38.3063 6.67465 34.9989 6.67465 31.6914C7.25488 31.6914 7.76832 31.6914 8.34994 31.6914C8.34994 35.0309 8.34994 38.3397 8.34994 41.6472C9.22377 41.6472 10.0294 41.6472 10.9185 41.6472C10.7891 41.444 10.7126 41.2854 10.6013 41.1574C10.0878 40.5702 9.97375 39.8912 9.9821 39.1245C10.0141 36.2929 9.99462 33.4613 9.99462 30.6298C9.99462 30.4377 9.99462 30.2457 9.99462 30.0231ZM9.99045 13.3314C9.98906 13.3314 9.98627 13.3314 9.98488 13.3314C9.98488 13.0058 10.0002 12.6802 9.9821 12.356C9.90974 11.0647 8.92461 10.0893 7.62083 10.0031C6.41027 9.92374 5.24842 10.7864 5.07588 12.0234C4.96178 12.836 4.95483 13.6848 5.04527 14.5016C5.18998 15.8137 6.37549 16.7529 7.62361 16.6653C8.96217 16.572 9.93618 15.5646 9.98906 14.2094C10.0002 13.9186 9.99045 13.625 9.99045 13.3314ZM1.69886 28.3534C1.69886 28.9127 1.69886 29.4373 1.69886 29.9535C2.25683 29.9535 2.7814 29.9535 3.30319 29.9535C3.30319 29.4025 3.30319 28.8905 3.30319 28.3534C2.76609 28.3534 2.25404 28.3534 1.69886 28.3534ZM16.6485 20.0061C17.1188 20.0061 17.4917 20.0186 17.8632 19.9978C17.9676 19.9922 18.1206 19.9115 18.1596 19.8238C18.3683 19.3549 18.5492 18.8721 18.7607 18.3406C18.2932 18.3406 17.8883 18.328 17.4861 18.3489C17.3832 18.3545 17.2301 18.438 17.1953 18.5242C17.0061 18.9862 16.8475 19.4593 16.6485 20.0061Z" fill="white"/>
<path d="M38.778 10.3525C38.2743 10.2189 37.8082 10.0965 37.3073 9.96427C37.4395 9.43274 37.5633 8.93321 37.7066 8.36133C38.1296 8.46708 38.5317 8.56726 38.9325 8.66745C39.6101 8.8372 40.2864 9.00835 40.9654 9.17393C41.3759 9.27411 41.65 9.53153 41.6597 9.94896C41.6848 11.0524 41.6681 12.1558 41.6681 13.2982C41.1115 13.2982 40.5869 13.2982 40.0164 13.2982C40.0164 12.7611 40.0164 12.2462 40.0164 11.6243C39.798 11.7634 39.6532 11.8469 39.5169 11.9429C37.4242 13.4053 35.3342 14.8705 33.2415 16.3329C32.5806 16.7948 32.3593 16.7837 31.7304 16.2814C30.6005 15.3798 29.4707 14.4753 28.3088 13.5472C26.5445 14.8051 24.7885 16.0574 22.9866 17.3417C22.6638 16.8909 22.3563 16.4609 22.0334 16.0073C22.1726 15.8988 22.2797 15.8055 22.3952 15.7234C24.1415 14.4739 25.8877 13.2258 27.634 11.9791C28.2212 11.5602 28.5009 11.5672 29.0672 12.018C30.1358 12.8696 31.1975 13.7295 32.2772 14.5658C32.3899 14.6534 32.6571 14.691 32.7601 14.62C34.7415 13.255 36.709 11.8691 38.6779 10.4874C38.7043 10.4708 38.7168 10.4374 38.778 10.3525Z" fill="white"/>
</svg>
