<svg width="212" height="61" viewBox="0 0 212 61" fill="none" xmlns="http://www.w3.org/2000/svg">
<g clip-path="url(#clip0_124_490)">
<path fill-rule="evenodd" clip-rule="evenodd" d="M58.833 24.3524C56.2131 23.6081 53.6232 24.7394 52.3132 26.9721C51.9263 27.5378 51.3904 27.8951 51.0034 28.2821C49.5149 29.2049 47.1034 29.592 44.6622 29.592C42.0425 29.592 39.6311 29.2049 38.1426 28.2821C37.428 27.7462 36.9219 27.121 36.4159 26.4959C36.2075 26.1982 35.9991 25.9302 35.7311 25.6623C33.677 23.6081 29.9557 23.6081 27.9015 25.8409C25.6687 28.2523 22.3047 29.3836 18.9704 29.2049C17.0949 29.3836 11.7064 28.8179 12.0935 26.2279C12.8377 21.0181 18.0475 22.8639 22.1558 21.5837C25.1329 20.4525 26.6214 17.4754 25.8771 14.4984C25.3115 12.0869 23.0787 10.2114 20.2803 10.2114C17.3033 10.39 14.6834 13.0099 14.8918 15.9869C14.8918 20.2738 13.4033 22.8639 10.4262 23.8165C7.62785 24.7394 4.65081 23.4295 2.23941 25.692C1.49515 26.615 1.10813 27.5676 0.750888 28.4905C0.750888 28.8774 0.572266 29.4133 0.572266 29.979C0.572266 32.5987 2.44781 34.8315 4.85921 35.3674C7.479 36.1117 10.069 34.9804 11.3789 32.7476C11.766 32.3607 12.1232 31.8248 12.6888 31.6164C14.1773 30.4851 16.5887 30.1279 19.0299 30.3065C21.6497 30.1279 24.0611 30.4851 25.3711 31.6164C26.9787 32.5094 27.574 34.0576 29.0626 34.8613C31.1762 36.0522 34.064 35.7842 35.7907 34.0576C38.0235 31.6461 41.3875 30.5149 44.7218 30.5149C46.5973 30.5149 51.9857 30.9018 51.5988 33.6705C50.8545 38.8803 45.6447 36.8262 41.5364 38.3147C38.5594 39.2376 36.8922 42.423 37.8151 45.1917C38.3807 47.8114 40.6134 49.4786 43.2035 49.4786C46.3591 49.4786 48.8003 46.8588 48.8003 43.8817C48.8003 39.4162 50.2888 37.0048 53.2659 35.8736C56.0643 35.1293 59.0414 36.2605 61.2742 33.998C62.197 33.2537 62.5841 32.3309 62.9413 31.3782C62.9413 30.8125 63.12 30.247 63.12 29.8897C63.12 27.121 61.2742 24.8882 58.833 24.3524Z" fill="white"/>
<path fill-rule="evenodd" clip-rule="evenodd" d="M34.838 1.25035C36.3265 2.91751 36.3265 5.5373 34.838 7.20444C33.1709 8.69296 30.5511 8.69296 28.8839 7.20444C27.2168 5.5373 27.2168 2.91751 28.8839 1.25035C30.5511 -0.416785 33.1411 -0.416785 34.838 1.25035Z" fill="white"/>
<path fill-rule="evenodd" clip-rule="evenodd" d="M34.8381 52.6347C36.5053 54.3018 36.5053 56.9216 34.8381 58.4101C33.1709 60.0773 30.5512 60.0773 28.884 58.4101C27.3954 56.9216 27.3954 54.3018 28.884 52.6347C30.5512 50.9675 33.1411 50.9675 34.8381 52.6347Z" fill="white"/>
<path fill-rule="evenodd" clip-rule="evenodd" d="M21.2329 40.5469C22.3642 41.6782 22.3642 43.7026 21.2329 44.8339C19.923 46.1437 18.0773 46.1437 16.7674 44.8339C15.6361 43.7026 15.6361 41.6782 16.7674 40.5469C18.0773 39.4157 19.923 39.4157 21.2329 40.5469Z" fill="white"/>
<path fill-rule="evenodd" clip-rule="evenodd" d="M46.9246 14.8556C48.0559 16.1654 48.0559 18.0112 46.9246 19.3211C45.6148 20.4524 43.769 20.4524 42.459 19.3211C41.3278 18.0112 41.3278 16.1654 42.459 14.8556C43.769 13.7242 45.6148 13.7242 46.9246 14.8556Z" fill="white"/>
<path fill-rule="evenodd" clip-rule="evenodd" d="M78.7492 35.129C77.4393 35.129 75.9508 34.9503 74.6409 34.3847C73.331 33.9977 72.0211 33.2534 71.0981 32.5091L72.7654 29.7108C73.5096 30.2764 74.4325 30.842 75.5637 31.1993C76.4867 31.5863 77.6179 31.7649 78.7194 31.7649C79.8209 31.7649 80.7735 31.5863 81.5178 31.0206C82.262 30.6336 82.6491 29.8894 82.6491 28.9665C82.6491 28.0436 82.262 27.478 81.5178 26.9123C80.5949 26.3467 79.4637 25.7811 77.9752 25.4238C73.8668 23.9353 71.8424 21.8811 71.8424 18.9041C71.8424 17.7728 72.0211 16.6713 72.7654 15.927C73.331 15.0042 74.2539 14.2599 75.1767 13.8729C76.3081 13.3073 77.4095 13.1287 78.7194 13.1287C80.0293 13.1287 81.1308 13.3073 82.2621 13.6942C83.3934 14.0813 84.4949 14.4385 85.6262 15.3614L84.1376 17.9812C83.2148 17.4155 82.262 17.0584 81.5178 16.85C80.7735 16.4629 79.8507 16.2843 78.898 16.2843C77.9752 16.2843 77.2309 16.6713 76.4867 17.0286C75.7424 17.3858 75.5935 18.011 75.5935 18.7553C75.5935 19.6781 75.7722 20.4224 76.5164 20.8095C77.2607 21.375 78.392 21.7323 79.8805 22.298C81.9347 22.8635 83.4232 23.7865 84.5246 24.7093C85.8346 25.8406 86.4002 27.1207 86.4002 28.8176C86.4002 30.1276 86.0132 31.229 85.2689 32.1818C84.7033 33.1046 83.7804 33.8489 82.6491 34.4145C81.5476 34.7717 80.2378 35.129 78.7492 35.129Z" fill="white"/>
<path fill-rule="evenodd" clip-rule="evenodd" d="M91.2231 18.0111C90.4789 18.0111 90.0918 17.8325 89.7346 17.4455C89.3475 17.0585 89.1689 16.5226 89.1689 15.957C89.1689 15.3914 89.3475 14.8257 89.7346 14.4685C90.1216 14.1112 90.4789 13.9028 91.2231 13.9028C91.7887 13.9028 92.3544 14.0814 92.7117 14.4685C93.0688 14.8555 93.2772 15.3914 93.2772 15.957C93.2772 16.5226 93.0986 17.0883 92.7117 17.4455C92.3544 17.8325 91.7887 18.0111 91.2231 18.0111ZM89.5559 20.8096H92.92V34.7719H89.5559V20.8096Z" fill="white"/>
<path fill-rule="evenodd" clip-rule="evenodd" d="M104.441 20.4221C106.108 20.4221 107.239 20.9878 108.162 21.9106C108.907 22.8335 109.294 24.322 109.294 26.0189V34.7715H105.929V26.3762C105.929 24.5007 105.185 23.5778 103.696 23.5778C102.566 23.5778 101.821 23.7564 101.077 24.5007C100.511 25.0663 100.154 25.9892 100.154 27.1205V34.7417H96.79V20.8091H99.2014L99.7672 23.0419C100.333 22.2976 100.899 21.732 101.643 21.1664C102.595 20.8091 103.518 20.4221 104.441 20.4221Z" fill="white"/>
<path fill-rule="evenodd" clip-rule="evenodd" d="M119.535 20.4221C121.411 20.4221 122.899 21.1664 124 22.2976C125.131 23.6075 125.668 25.2747 125.668 27.3289C125.668 27.7159 125.668 28.0731 125.668 28.8174H115.605C115.784 29.9487 116.349 30.8716 117.094 31.4371C118.017 32.0028 118.969 32.3601 120.071 32.3601C120.815 32.3601 121.56 32.1814 122.124 31.973C122.69 31.7944 123.256 31.4074 123.792 31.0502L125.102 33.1043C124.357 33.8486 123.613 34.2356 122.69 34.5929C121.768 34.9798 120.815 35.1584 119.713 35.1584C118.225 35.1584 116.915 34.7715 115.813 34.2356C114.682 33.4913 113.938 32.7471 113.194 31.6158C112.628 30.4845 112.271 29.2044 112.271 27.7159C112.271 26.406 112.658 25.0961 113.194 24.1732C113.76 23.0419 114.682 22.119 115.813 21.3748C116.915 20.8091 118.046 20.4221 119.535 20.4221ZM119.356 23.2206C118.434 23.2206 117.689 23.6075 116.945 24.1434C116.379 24.7091 115.813 25.4534 115.635 26.5548H122.512C122.512 25.4236 122.124 24.6793 121.589 24.1434C121.023 23.6075 120.279 23.2206 119.356 23.2206Z" fill="white"/>
<path fill-rule="evenodd" clip-rule="evenodd" d="M134.986 35.1287C133.855 35.1287 132.574 34.7417 131.622 34.2058C130.49 33.6402 129.567 32.896 128.823 31.7944C128.257 30.6632 127.9 29.383 127.9 27.6861C127.9 26.3762 128.287 25.0663 128.823 23.9648C129.567 22.8335 130.312 21.9106 131.443 21.345C132.574 20.7794 133.855 20.4221 135.164 20.4221C137.218 20.4221 138.885 21.1664 140.374 22.2976L138.707 24.5304C138.141 24.1434 137.575 23.9648 137.218 23.7861C136.653 23.6075 136.087 23.3992 135.343 23.3992C134.212 23.3992 133.289 23.7861 132.545 24.7091C131.622 25.4534 131.234 26.3762 131.234 27.6861C131.234 29.1747 131.622 30.0975 132.366 30.8418C133.289 31.7646 134.241 32.1517 135.343 32.1517C136.087 32.1517 136.653 31.973 137.218 31.7646C137.784 31.586 138.35 31.199 138.885 30.6334L140.553 32.8662C139.808 33.6104 138.885 34.1761 138.141 34.5333C137.218 34.9501 136.296 35.1287 134.986 35.1287Z" fill="white"/>
<path fill-rule="evenodd" clip-rule="evenodd" d="M155.289 20.8098V34.7721H153.057L152.312 32.5393C151.747 33.2836 151.181 33.8492 150.436 34.4149C149.692 34.8019 148.769 34.9805 147.817 34.9805C146.15 34.9805 145.018 34.4149 144.096 33.4919C143.351 32.5691 142.785 31.2592 142.785 29.3837V20.8098H146.328V29.1753C146.328 31.0508 147.073 31.9736 148.74 31.9736C149.663 31.9736 150.407 31.5866 150.973 30.8424C151.538 30.0981 151.895 29.1753 151.895 28.0439V20.8098H155.289Z" fill="white"/>
<path fill-rule="evenodd" clip-rule="evenodd" d="M166.275 20.6306C167.197 20.6306 167.942 20.8092 168.686 21.1963L167.763 23.9946C167.197 23.816 166.632 23.6077 165.887 23.6077C164.965 23.6077 164.22 23.9946 163.654 24.5305C162.91 25.2748 162.732 26.019 162.732 27.1504V34.7716H159.368V20.8092H161.601L162.166 22.8634C162.553 22.1191 163.088 21.5535 163.833 21.1963C164.577 20.839 165.321 20.6306 166.275 20.6306Z" fill="white"/>
<path fill-rule="evenodd" clip-rule="evenodd" d="M177.052 20.4221C178.927 20.4221 180.594 21.1664 181.695 22.2976C182.827 23.6075 183.363 25.2747 183.363 27.3289C183.363 27.7159 183.363 28.0731 183.184 28.8174H173.33C173.509 29.9487 174.075 30.8716 174.819 31.4371C175.563 32.0028 176.486 32.3601 177.795 32.3601C178.539 32.3601 179.105 32.1814 179.671 31.973C180.415 31.7944 180.981 31.4074 181.338 31.0502L182.827 33.1043C182.082 33.8486 181.16 34.2356 180.207 34.5929C179.463 34.9798 178.539 35.1584 177.409 35.1584C175.92 35.1584 174.61 34.7715 173.509 34.2356C172.377 33.4913 171.454 32.7471 170.888 31.6158C170.145 30.4845 169.966 29.2044 169.966 27.7159C169.966 26.406 170.145 25.0961 170.888 24.1732C171.454 23.0419 172.199 22.119 173.301 21.3748C174.461 20.8091 175.742 20.4221 177.052 20.4221ZM177.052 23.2206C176.128 23.2206 175.176 23.6075 174.639 24.1434C173.896 24.7091 173.509 25.4534 173.33 26.5548H180.207C180.028 25.4236 179.82 24.6793 179.284 24.1434C178.719 23.6075 177.975 23.2206 177.052 23.2206Z" fill="white"/>
<path fill-rule="evenodd" clip-rule="evenodd" d="M188.423 34.9505C187.858 34.9505 187.679 34.9505 187.293 34.5635C186.905 34.3849 186.905 33.9978 186.905 33.6406C186.905 33.075 186.905 32.7177 187.293 32.5093C187.471 32.1223 187.858 32.1223 188.423 32.1223C188.811 32.1223 188.989 32.1223 189.347 32.5093C189.733 32.6879 189.733 33.075 189.733 33.6406C189.733 34.0276 189.733 34.3849 189.347 34.5635C188.96 34.9505 188.781 34.9505 188.423 34.9505Z" fill="white"/>
<path fill-rule="evenodd" clip-rule="evenodd" d="M199.766 20.8098C201.255 20.8098 202.564 21.1968 203.488 22.1196C204.41 22.8639 204.976 23.9952 204.976 25.6624V34.7721H203.488L203.1 32.1523C202.534 33.0752 201.97 33.6408 201.046 34.2064C200.123 34.7721 199.171 34.9507 197.89 34.9507C196.611 34.9507 195.479 34.5637 194.735 33.8194C193.99 33.2538 193.604 32.3309 193.604 31.021C193.604 29.5325 194.17 28.4012 195.479 27.4784C196.789 26.7341 198.456 26.1684 200.511 26.1684C201.433 26.1684 202.386 26.347 202.922 26.347V25.4242C202.922 24.5013 202.743 23.7571 201.999 23.37C201.433 22.8044 200.511 22.6257 199.588 22.6257C198.099 22.6257 196.611 23.0128 194.944 23.7571L194.378 22.0898C196.223 21.167 197.921 20.8098 199.766 20.8098ZM198.278 33.105C199.766 33.105 200.897 32.7179 201.641 31.795C202.564 30.8722 202.951 29.5623 202.951 28.0737C202.386 27.8951 201.641 27.8951 200.719 27.8951C199.051 27.8951 197.921 28.0737 196.997 28.6394C196.074 29.2051 195.688 29.9493 195.688 31.0508C195.688 31.6164 195.866 32.1821 196.253 32.5393C196.789 32.8966 197.355 33.105 198.278 33.105Z" fill="white"/>
<path fill-rule="evenodd" clip-rule="evenodd" d="M210.573 17.4456C210.007 17.4456 209.829 17.267 209.441 16.88C209.263 16.7013 209.055 16.3143 209.055 15.957C209.055 15.5999 209.233 15.2128 209.441 15.0342C209.62 14.6472 210.007 14.6472 210.573 14.6472C210.959 14.6472 211.317 14.6472 211.496 15.0342C211.883 15.2128 211.883 15.5999 211.883 15.957C211.883 16.3143 211.883 16.7013 211.496 17.0884C211.317 17.267 210.93 17.4456 210.573 17.4456ZM209.65 20.9883H211.525V34.7719H209.65V20.9883Z" fill="white"/>
<path fill-rule="evenodd" clip-rule="evenodd" d="M89.3772 41.2917H90.3V43.3459H92.7115V41.2917H93.6344V46.5016H92.7115V44.2688H90.3V46.5016H89.3772V41.2917Z" fill="white"/>
<path fill-rule="evenodd" clip-rule="evenodd" d="M98.6951 41.2917H99.6182V46.5016H98.6951V41.2917Z" fill="white"/>
<path fill-rule="evenodd" clip-rule="evenodd" d="M108.55 46.5016H107.627L106.317 44.4475H105.572V46.5016H104.65V41.2917H106.704C107.091 41.2917 107.269 41.2917 107.627 41.4704C107.805 41.649 108.013 41.8574 108.193 42.036C108.371 42.2147 108.371 42.6017 108.371 42.7803C108.371 43.1673 108.371 43.5245 108.193 43.9116C107.805 44.0902 107.627 44.2986 107.269 44.4772L108.55 46.5016ZM106.495 43.7032C106.883 43.7032 107.061 43.7032 107.239 43.5245C107.418 43.3459 107.418 43.1375 107.418 42.959C107.418 42.5719 107.418 42.3933 107.239 42.2147C107.061 42.036 106.853 42.036 106.495 42.036H105.572V43.7032H106.495Z" fill="white"/>
<path fill-rule="evenodd" clip-rule="evenodd" d="M113.014 41.2917H113.938V46.5016H113.014V41.2917Z" fill="white"/>
<path fill-rule="evenodd" clip-rule="evenodd" d="M123.435 41.2916V46.5015H123.047L120.249 43.3458C120.07 43.1672 119.862 42.9588 119.862 42.9588C119.862 43.1374 119.862 43.3458 119.862 43.5244V46.5015H118.939V41.0833H119.327L122.124 44.239C122.303 44.4176 122.512 44.626 122.69 44.8046C122.512 44.4176 122.512 44.239 122.512 44.0603V41.2619H123.435V41.2916Z" fill="white"/>
<path fill-rule="evenodd" clip-rule="evenodd" d="M133.111 43.5244V45.5786C132.723 45.9656 132.545 46.1443 132.187 46.3229C131.8 46.5015 131.443 46.5015 130.878 46.5015C130.312 46.5015 129.955 46.5015 129.567 46.1145C129.002 45.9359 128.823 45.5488 128.436 45.1916C128.257 44.8046 128.049 44.2687 128.049 43.8817C128.049 43.316 128.228 42.7505 128.436 42.3932C128.823 42.0062 129.002 41.6489 129.359 41.4703C129.924 41.2916 130.282 41.0833 130.847 41.0833C131.771 41.0833 132.336 41.4703 132.902 42.0062L132.336 42.5718C132.157 42.3932 131.949 42.1848 131.771 42.0062C131.383 42.0062 131.205 41.8275 130.847 41.8275C130.49 41.8275 130.282 42.0062 129.924 42.2146C129.746 42.3932 129.359 42.6016 129.359 42.7802C129.18 43.1672 128.972 43.5244 128.972 43.9115C128.972 44.2985 129.15 44.6558 129.359 44.8344C129.538 45.2213 129.746 45.4 129.924 45.5786C130.312 45.7572 130.669 45.7572 131.056 45.7572C131.443 45.7572 131.979 45.5786 132.187 45.1916V44.2687H130.878V43.5244H133.111Z" fill="white"/>
<path fill-rule="evenodd" clip-rule="evenodd" d="M138.141 46.501C138.141 46.501 137.963 46.501 137.754 46.501C137.754 46.3224 137.575 46.114 137.575 45.9354C137.575 45.9354 137.754 45.7568 137.754 45.5483C137.933 45.5483 138.141 45.5483 138.141 45.5483C138.32 45.5483 138.529 45.5483 138.529 45.5483C138.707 45.727 138.707 45.9354 138.707 45.9354C138.707 46.114 138.707 46.3224 138.529 46.501C138.529 46.501 138.349 46.501 138.141 46.501Z" fill="white"/>
<path fill-rule="evenodd" clip-rule="evenodd" d="M145.226 46.5015C144.84 46.5015 144.482 46.5015 144.096 46.3229C143.708 46.3229 143.53 46.1443 143.173 45.9359L143.738 45.1916C143.917 45.3702 144.125 45.5786 144.304 45.5786C144.691 45.7572 144.869 45.7572 145.226 45.7572C145.405 45.7572 145.614 45.7572 145.792 45.5786C145.971 45.4 146.18 45.1916 146.18 45.0129C146.18 44.8344 146 44.626 145.792 44.4474C145.614 44.4474 145.405 44.2687 145.048 44.0603C143.917 43.8817 143.381 43.316 143.381 42.5718C143.381 42.1848 143.559 42.0062 143.768 41.8275C143.976 41.6489 144.155 41.4405 144.333 41.2619C144.721 41.0833 144.899 41.0833 145.256 41.0833C145.435 41.0833 145.822 41.0833 146.18 41.2619C146.358 41.2619 146.566 41.4405 146.924 41.6489L146.537 42.3932C146.358 42.2146 146.149 42.0062 145.792 42.0062C145.614 42.0062 145.405 41.8275 145.226 41.8275C145.048 41.8275 144.84 42.0062 144.661 42.0062C144.482 42.1848 144.274 42.3932 144.274 42.5718C144.274 42.7505 144.452 42.9588 144.661 42.9588C144.84 43.1374 145.048 43.3458 145.405 43.3458C145.971 43.5244 146.329 43.7328 146.715 44.0901C146.893 44.2687 147.102 44.6558 147.102 45.0129C147.102 45.4 146.924 45.5786 146.924 45.7572C146.745 46.1443 146.358 46.3229 146.18 46.3229C145.792 46.5015 145.584 46.5015 145.226 46.5015Z" fill="white"/>
<path fill-rule="evenodd" clip-rule="evenodd" d="M151.747 41.2917H152.669V46.5016H151.747V41.2917Z" fill="white"/>
<path fill-rule="evenodd" clip-rule="evenodd" d="M163.268 46.5015H162.344L161.958 43.7031C161.779 43.316 161.779 43.1374 161.779 43.1374C161.779 43.1374 161.6 43.316 161.6 43.5244L160.291 45.4H160.112L158.981 43.5244C158.802 43.5244 158.802 43.3458 158.593 43.1374V43.316C158.593 43.4947 158.593 43.4947 158.593 43.7031L158.028 46.5015H157.284L158.058 41.0833H158.236L159.903 43.4947C159.903 43.8817 160.082 43.8817 160.291 44.0603C160.291 43.8817 160.469 43.8817 160.469 43.4947L162.136 41.0833H162.315L163.268 46.5015Z" fill="white"/>
<path fill-rule="evenodd" clip-rule="evenodd" d="M167.942 41.2917H169.817C170.204 41.2917 170.561 41.2917 170.739 41.4704C171.127 41.649 171.305 41.8574 171.484 42.036C171.662 42.4231 171.662 42.6017 171.662 42.959C171.662 43.1375 171.662 43.5245 171.484 43.7032C171.305 43.8818 171.097 44.2688 170.739 44.2688C170.561 44.4475 170.175 44.6559 169.817 44.6559H168.686V46.5314H167.942V41.2917ZM169.787 43.7032C169.966 43.7032 170.353 43.7032 170.531 43.5245C170.71 43.3459 170.71 43.1375 170.71 42.959C170.71 42.5719 170.531 42.3933 170.531 42.2147C170.353 42.036 169.966 42.036 169.787 42.036H168.655V43.7032H169.787Z" fill="white"/>
<path fill-rule="evenodd" clip-rule="evenodd" d="M176.128 41.2917H177.051V45.5787H179.284V46.5016H176.128V41.2917Z" fill="white"/>
<path fill-rule="evenodd" clip-rule="evenodd" d="M187.293 45.7573V46.5016H183.958V41.2917H187.114V42.036H184.881V43.3459H186.935V44.2688H184.881V45.7573H187.293Z" fill="white"/>
<path fill-rule="evenodd" clip-rule="evenodd" d="M192.323 46.501C192.145 46.501 191.937 46.501 191.937 46.501C191.758 46.3224 191.758 46.114 191.758 45.9354C191.758 45.9354 191.758 45.7568 191.937 45.5483C191.937 45.5483 192.115 45.5483 192.323 45.5483C192.503 45.5483 192.503 45.5483 192.711 45.5483C192.889 45.727 192.889 45.9354 192.889 45.9354C192.889 46.114 192.889 46.3224 192.711 46.501C192.503 46.501 192.503 46.501 192.323 46.501Z" fill="white"/>
</g>
<defs>
<clipPath id="clip0_124_490">
<rect width="211.31" height="60.3744" fill="white" transform="translate(0.572266)"/>
</clipPath>
</defs>
</svg>
