<svg width="55" height="50" viewBox="0 0 55 50" fill="none" xmlns="http://www.w3.org/2000/svg">
<path d="M0 23.8205C0.468594 22.5479 1.3962 22.0345 2.7253 22.1208C3.37813 22.1634 4.03629 22.1048 4.6902 22.1378C5.04484 22.1559 5.26848 22.0281 5.40906 21.7289C5.60928 21.305 5.79672 20.8758 6.0374 20.3412C4.16835 20.4935 3.4857 19.436 3.23649 17.9258C3.18537 17.6159 3.04266 17.4945 2.7253 17.4423C1.85627 17.2985 1.25349 16.6446 1.11184 15.765C0.986176 14.9875 1.38448 14.1494 2.11932 13.7596C2.39622 13.6126 2.51656 13.4476 2.59004 13.1387C3.68165 8.57205 6.4176 5.58264 11.0301 4.42287C11.471 4.31211 11.93 4.26951 12.3719 4.19709C12.5253 3.17577 12.7234 2.87971 13.2303 2.89036C13.7468 2.90101 13.9641 3.23435 14.0557 4.18964C14.5094 4.26845 14.9812 4.3185 15.4359 4.43352C19.9557 5.57732 22.6767 8.49644 23.8003 12.9683C23.894 13.3411 23.9973 13.6137 24.3818 13.816C25.1262 14.208 25.4542 15.061 25.2923 15.9098C25.1486 16.6681 24.5138 17.3198 23.7162 17.4391C23.3647 17.4913 23.2337 17.6511 23.1794 17.961C23.1389 18.1867 23.0761 18.4093 23.0143 18.6308C22.6885 19.8087 22.0207 20.3231 20.7853 20.3487C20.5968 20.3529 20.4083 20.3497 20.0334 20.3497C20.3604 20.9834 20.6075 21.4978 20.895 21.9866C20.9515 22.0825 21.1698 22.1229 21.3136 22.124C24.7854 22.1314 28.2562 22.1336 31.728 22.1197C31.907 22.1187 32.1658 22.0143 32.2499 21.8759C32.5193 21.4328 32.7238 20.9504 33.0252 20.338C32.53 20.338 32.2009 20.354 31.874 20.3348C30.9517 20.2805 30.2722 19.748 29.9911 18.8747C29.9367 18.7065 29.8846 18.535 29.8601 18.3614C29.7823 17.8204 29.5959 17.4785 28.9548 17.3561C28.2285 17.2176 27.7887 16.6287 27.647 15.8981C27.5011 15.1515 27.6811 14.4433 28.3094 13.9982C28.7344 13.6978 28.7088 13.3879 28.6673 12.9683C28.2274 8.57418 29.7078 5.01394 33.3149 2.39833C33.7281 2.09907 34.1892 1.86584 34.6663 1.57936C34.5119 1.01172 34.2095 0.357823 35.0604 0.0500418C35.5045 -0.110771 35.7878 0.127786 36.2223 0.956344C36.8975 0.849846 37.5716 0.689033 38.2532 0.646434C42.8177 0.358888 46.2587 2.27586 48.7124 6.06401C49.344 7.03954 49.0916 7.71155 48.0053 8.13115C46.5047 8.71157 45.0031 9.28879 43.5025 9.86814C43.4077 9.90435 43.3162 9.94908 43.2767 9.96719C43.8593 10.309 44.4365 10.6807 45.0468 10.9874C45.2544 11.0918 45.5707 11.112 45.7933 11.0375C47.8061 10.374 49.3738 11.1813 49.9979 13.2154C50.0383 13.3474 50.1928 13.4912 50.327 13.5402C51.3291 13.9066 51.9074 14.6723 51.8499 15.5956C51.7902 16.5541 51.1513 17.2336 50.1257 17.4785C49.9776 17.5137 49.8403 17.6809 49.7444 17.8193C49.6688 17.929 49.6645 18.0877 49.6305 18.2251C49.2204 19.8364 48.8147 20.1964 47.116 20.3881C47.2385 21.0047 47.4675 21.5617 47.8871 22.0196C47.9797 22.1208 48.2098 22.1261 48.3759 22.1272C49.5804 22.1357 50.7849 22.1293 51.9894 22.1325C53.2823 22.1357 54.1801 22.812 54.3888 23.9366C54.5869 25.0037 53.9745 25.942 52.7136 26.4393C52.7136 27.385 52.721 28.3542 52.7125 29.3233C52.6965 31.2094 51.4654 32.6567 49.6081 32.9155C48.3589 33.0901 47.3216 32.6162 46.4334 31.6727C45.6847 32.4661 44.7858 32.9517 43.6868 32.9485C42.6015 32.9464 41.6995 32.5033 40.938 31.6599C40.1979 32.4799 39.2873 32.9517 38.1872 32.9485C37.1041 32.9453 36.1989 32.5044 35.4512 31.6609C34.7004 32.4831 33.792 32.9517 32.6919 32.9496C31.6088 32.9474 30.7099 32.4938 29.957 31.6641C29.203 32.4906 28.2924 32.9528 27.1923 32.9496C26.1092 32.9453 25.2135 32.4874 24.4915 31.6929C22.5532 33.5747 20.3647 33.1594 18.9717 31.7025C17.1441 33.5587 14.8448 33.1679 13.4859 31.6737C12.7511 32.465 11.8501 32.9485 10.7521 32.9485C9.66687 32.9485 8.76377 32.5065 8.13329 31.8111C7.36863 32.1807 6.68598 32.6695 5.9309 32.8441C3.79135 33.3372 1.77746 31.7035 1.71356 29.5001C1.68481 28.4926 1.70824 27.483 1.70824 26.4223C0.825364 26.2018 0.319496 25.582 0 24.7769C0 24.4584 0 24.1389 0 23.8205ZM4.17794 13.455C10.2132 13.455 16.2219 13.455 22.2358 13.455C21.7768 10.3101 18.8044 5.98095 13.4529 5.78179C9.05664 5.61779 4.88828 9.05982 4.17794 13.455ZM47.2236 6.72431C44.8519 2.72209 39.7112 1.09799 35.545 2.96704C31.1029 4.95962 29.5746 9.88944 30.3659 13.1845C35.9741 11.0364 41.5781 8.88836 47.2236 6.72431ZM27.2082 23.7225C19.0079 23.7225 10.8075 23.7225 2.60708 23.7225C1.89354 23.7225 1.59748 23.8929 1.59854 24.2987C1.59961 24.7034 1.89461 24.8706 2.61028 24.8706C19.0111 24.8706 35.4118 24.8706 51.8137 24.8706C52.5283 24.8706 52.8233 24.7013 52.8222 24.2955C52.8211 23.8908 52.5251 23.7225 51.8105 23.7225C43.609 23.7225 35.4086 23.7225 27.2082 23.7225ZM21.6267 17.5233C15.9982 17.5233 10.4177 17.5233 4.8329 17.5233C4.98626 18.7299 5.0033 18.7448 6.15136 18.7448C8.64768 18.7448 11.144 18.7448 13.6403 18.7448C15.9769 18.7448 18.3146 18.7309 20.6511 18.7554C21.1772 18.7608 21.4509 18.5872 21.5138 18.0685C21.5329 17.8981 21.5819 17.732 21.6267 17.5233ZM48.1256 17.5371C42.5132 17.5371 36.9348 17.5371 31.3521 17.5371C31.465 18.6873 31.5268 18.7448 32.5907 18.7448C37.316 18.7448 42.0414 18.7448 46.7667 18.7448C47.9148 18.7448 47.9148 18.7448 48.1256 17.5371ZM45.4333 20.3742C41.8124 20.3742 38.1925 20.3742 34.5918 20.3742C34.4065 20.9727 34.2318 21.534 34.055 22.1048C38.0487 22.1048 42.0073 22.1048 45.9776 22.1048C45.7912 21.5138 45.6133 20.9461 45.4333 20.3742ZM19.0079 22.1123C18.8492 21.5638 18.7267 21.0686 18.5542 20.5915C18.5126 20.4765 18.3071 20.3593 18.1718 20.3508C17.6596 20.322 17.1452 20.3391 16.6319 20.3391C13.7809 20.3391 10.9299 20.3359 8.07898 20.3455C7.90752 20.3465 7.6221 20.4019 7.58376 20.5042C7.391 21.0207 7.2632 21.5606 7.10771 22.1112C11.0897 22.1123 15.0355 22.1123 19.0079 22.1123ZM36.2564 26.484C36.2564 27.5682 36.2116 28.6098 36.2702 29.6439C36.3224 30.5661 37.1446 31.2861 38.0764 31.3521C38.9646 31.4139 39.9487 30.7983 40.0381 29.9186C40.1531 28.7919 40.0658 27.6438 40.0658 26.4851C38.823 26.484 37.5727 26.484 36.2564 26.484ZM14.3123 26.4894C14.3123 27.5714 14.2527 28.6321 14.3304 29.6833C14.4007 30.6354 15.2304 31.318 16.1675 31.3542C17.0664 31.3883 17.9961 30.7738 18.092 29.859C18.2091 28.7482 18.1197 27.6151 18.1197 26.4894C16.847 26.4894 15.5946 26.4894 14.3123 26.4894ZM19.7906 26.4926C19.7906 27.5746 19.7321 28.6332 19.8077 29.6822C19.8758 30.6332 20.7544 31.3425 21.6991 31.3553C22.6246 31.3681 23.517 30.712 23.6011 29.7748C23.697 28.696 23.6235 27.6012 23.6235 26.4926C22.3487 26.4926 21.0867 26.4926 19.7906 26.4926ZM34.6376 26.5085C33.3053 26.5085 32.0443 26.5085 30.7461 26.5085C30.7461 27.4681 30.744 28.384 30.7483 29.2988C30.7493 29.4394 30.7653 29.581 30.7898 29.7195C30.9613 30.679 31.7717 31.3649 32.7174 31.3553C33.6812 31.3457 34.5641 30.6045 34.6227 29.6353C34.6866 28.6023 34.6376 27.5618 34.6376 26.5085ZM3.29932 26.4872C3.29932 26.697 3.29826 26.8696 3.29932 27.041C3.30358 27.9058 3.25992 28.7748 3.32595 29.6353C3.39943 30.5917 4.23332 31.3138 5.18115 31.3542C6.12047 31.3936 7.04168 30.7312 7.13114 29.7685C7.23125 28.6907 7.15457 27.597 7.15457 26.4862C5.88724 26.4872 4.63801 26.4872 3.29932 26.4872ZM51.1182 26.4958C49.7955 26.4958 48.5335 26.4958 47.2619 26.4958C47.2619 27.5991 47.1874 28.6768 47.2832 29.7397C47.3716 30.7259 48.3067 31.4064 49.2641 31.3532C50.2556 31.2978 51.0746 30.5118 51.1108 29.5075C51.1459 28.5224 51.1182 27.5341 51.1182 26.4958ZM29.1242 26.499C27.8132 26.499 26.5661 26.499 25.2945 26.499C25.2945 27.5906 25.2476 28.6502 25.3083 29.7035C25.3616 30.629 26.2668 31.3574 27.2146 31.3553C28.1422 31.3532 29.0464 30.6524 29.1071 29.7493C29.1785 28.68 29.1242 27.6023 29.1242 26.499ZM8.81808 26.4926C8.81808 27.582 8.77761 28.6247 8.82979 29.663C8.87665 30.5917 9.75101 31.334 10.7031 31.3553C11.6264 31.3766 12.5583 30.6907 12.6265 29.7887C12.7085 28.7045 12.6456 27.6097 12.6456 26.4915C11.373 26.4926 10.1248 26.4926 8.81808 26.4926ZM45.6048 26.4947C44.2938 26.4947 43.0456 26.4947 41.7772 26.4947C41.7772 27.6151 41.7144 28.7109 41.7964 29.7962C41.8646 30.695 42.805 31.3808 43.7251 31.3564C44.6783 31.3308 45.5462 30.5885 45.5931 29.6577C45.6442 28.6193 45.6048 27.5767 45.6048 26.4947ZM13.176 15.0908C12.3442 15.0908 11.5125 15.0908 10.6797 15.0908C8.21956 15.0908 5.75838 15.093 3.29826 15.0887C2.98728 15.0887 2.66459 15.1409 2.72317 15.5094C2.74766 15.6638 3.09165 15.7746 3.29826 15.8896C3.35257 15.9194 3.43777 15.8949 3.50806 15.8949C9.98743 15.8949 16.4657 15.8949 22.9451 15.8938C23.1038 15.8938 23.2859 15.9247 23.4148 15.8576C23.5468 15.7884 23.7055 15.618 23.7066 15.4923C23.7066 15.3645 23.5511 15.1909 23.419 15.1217C23.2923 15.0557 23.1081 15.0919 22.9494 15.0919C19.6905 15.0908 16.4327 15.0908 13.176 15.0908ZM39.7442 15.0908C38.9476 15.0908 38.151 15.0908 37.3544 15.0908C34.841 15.0908 32.3266 15.0919 29.8132 15.0898C29.5086 15.0898 29.2094 15.1164 29.2243 15.5147C29.237 15.881 29.5342 15.8896 29.8089 15.8938C29.8973 15.8949 29.9857 15.8949 30.0741 15.8949C36.5184 15.8949 42.9615 15.8949 49.4057 15.8938C49.5644 15.8938 49.7476 15.9332 49.8765 15.8672C50.0266 15.7905 50.2247 15.6212 50.2268 15.4902C50.2279 15.3613 50.0298 15.1952 49.8807 15.11C49.7732 15.0482 49.6038 15.0898 49.4633 15.0898C46.2236 15.0908 42.9839 15.0908 39.7442 15.0908ZM48.3418 13.4667C48.2044 12.7596 47.5729 12.3038 46.8743 12.389C46.7699 12.4017 46.6581 12.4145 46.5644 12.4582C45.4898 12.9598 44.5664 12.7159 43.6782 11.9789C43.117 11.5135 42.4322 11.4965 41.7858 11.8501C41.1702 12.1866 40.8347 12.7159 40.822 13.4667C43.3449 13.4667 45.8402 13.4667 48.3418 13.4667ZM34.2851 13.3932C34.2989 13.4156 34.3128 13.438 34.3255 13.4614C35.9475 13.4614 37.5695 13.4614 39.0722 13.4614C39.348 12.6893 39.5994 11.9885 39.8613 11.2569C38.02 11.9619 36.152 12.6776 34.2851 13.3932Z" fill="white"/>
<path d="M48.6527 43.5036C48.6527 43.985 48.6527 44.4046 48.6527 44.8253C48.6527 45.8168 48.6676 46.8093 48.6474 47.8008C48.6208 49.1278 47.7518 49.9841 46.4322 49.999C46.0446 50.0032 45.6431 50.0107 45.2725 49.918C44.3246 49.6816 43.741 48.8488 43.7282 47.7604C43.7144 46.5559 43.725 45.3514 43.724 44.1469C43.724 43.9552 43.724 43.7645 43.724 43.5388C32.7152 43.5388 21.7619 43.5388 10.7403 43.5388C10.7403 44.1309 10.7403 44.7092 10.7403 45.2864C10.7403 46.1544 10.752 47.0223 10.7361 47.8903C10.7137 49.0767 9.83189 49.951 8.64123 49.9851C8.39309 49.9926 8.14495 49.9926 7.89787 49.983C6.7381 49.9404 5.86055 49.0682 5.84351 47.9063C5.82541 46.6496 5.83819 45.3918 5.83819 44.1341C5.83819 43.9445 5.83819 43.755 5.83819 43.5015C5.37918 43.5015 4.97662 43.5111 4.57405 43.4994C3.02024 43.4578 1.74865 42.2565 1.71989 40.708C1.67942 38.495 1.70285 36.2809 1.71031 34.0668C1.71244 33.5332 2.04258 33.186 2.4984 33.1807C2.97231 33.1754 3.29607 33.5354 3.29713 34.1051C3.30246 36.1595 3.2982 38.2138 3.30033 40.2682C3.30139 41.4301 3.77957 41.9083 4.94573 41.9083C19.7874 41.9093 34.629 41.9093 49.4706 41.9083C50.6421 41.9083 51.1214 41.4344 51.1224 40.2746C51.1246 38.2735 51.1214 36.2724 51.1235 34.2702C51.1246 33.5961 51.4025 33.234 51.9116 33.2297C52.4196 33.2255 52.7157 33.5971 52.7167 34.2585C52.7188 36.3309 52.7252 38.4023 52.7146 40.4748C52.7061 42.2448 51.4707 43.4791 49.7092 43.5004C49.3769 43.5068 49.0457 43.5036 48.6527 43.5036ZM45.3619 43.5313C45.346 43.6921 45.3215 43.8295 45.3215 43.9658C45.3183 45.1842 45.3151 46.4025 45.3215 47.6219C45.3247 48.2758 45.4706 48.4058 46.1532 48.4089C46.8934 48.4132 47.0521 48.2854 47.0563 47.6379C47.0627 46.4015 47.0595 45.165 47.0563 43.9296C47.0563 43.7954 47.0244 43.6623 47.0073 43.5313C46.4376 43.5313 45.9136 43.5313 45.3619 43.5313ZM7.43567 43.5302C7.43567 45.0074 7.43034 46.4377 7.43993 47.869C7.44206 48.2066 7.64867 48.3791 7.9852 48.3898C8.10874 48.394 8.23334 48.394 8.35688 48.393C9.01611 48.3876 9.14177 48.2684 9.14603 47.6262C9.15029 46.9893 9.1471 46.3525 9.1471 45.7156C9.1471 44.9957 9.1471 44.2757 9.1471 43.5313C8.56029 43.5303 8.03738 43.5302 7.43567 43.5302Z" fill="white"/>
</svg>
