<svg width="211" height="51" viewBox="0 0 211 51" fill="none" xmlns="http://www.w3.org/2000/svg">
<path d="M181.017 0C170.095 0 161.1 8.83401 161.1 19.9167C161.1 30.8387 169.934 39.8334 181.017 39.8334C191.939 39.8334 200.934 30.9994 200.934 19.9167C200.934 8.83401 191.939 0 181.017 0ZM196.436 8.83401C195.473 9.47649 194.348 10.119 193.224 10.7614C192.582 9.47649 191.779 8.19154 190.815 7.06721C191.618 6.58536 192.421 5.94288 193.063 5.46103C194.509 6.26412 195.633 7.54907 196.436 8.83401ZM188.084 2.24866C189.69 2.89113 191.136 3.69422 192.582 4.81855C191.939 5.46103 191.136 5.94288 190.333 6.42474C189.369 5.30041 188.245 4.3367 187.121 3.37299C187.442 2.89113 187.763 2.56989 188.084 2.24866ZM189.69 6.74597C188.566 7.38845 187.442 7.70968 186.317 8.19154C185.836 7.06721 185.354 5.94288 184.711 4.97917C185.354 4.65793 185.996 4.3367 186.478 3.85484C187.602 4.65793 188.727 5.62164 189.69 6.74597ZM187.281 1.92742C186.96 2.24866 186.639 2.56989 186.478 2.89113C185.354 2.24866 184.39 1.60618 183.105 1.12433C184.551 1.12433 185.996 1.44557 187.281 1.92742ZM185.836 3.37299C185.354 3.69422 184.872 4.01546 184.39 4.17608C183.748 3.21237 183.105 2.40928 182.463 1.44557C183.587 1.92742 184.711 2.56989 185.836 3.37299ZM181.338 1.60618C182.141 2.40928 182.784 3.37299 183.426 4.49732C182.784 4.65793 182.141 4.81855 181.338 4.81855V1.60618ZM181.338 5.62164C182.141 5.62164 183.105 5.46103 183.908 5.13979C184.551 6.1035 185.033 7.22783 185.514 8.35216C184.229 8.67339 182.784 8.83401 181.338 8.99463V5.62164ZM180.535 1.60618V4.81855C179.893 4.81855 179.25 4.65793 178.447 4.49732C179.25 3.5336 179.893 2.56989 180.535 1.60618ZM177.805 4.17608C177.323 4.01546 176.68 3.69422 176.359 3.37299C177.483 2.73051 178.608 2.08804 179.732 1.60618C178.929 2.40928 178.287 3.21237 177.805 4.17608ZM178.929 0.96371C177.805 1.44557 176.68 2.08804 175.556 2.73051C175.235 2.40928 174.914 2.08804 174.753 1.7668C176.038 1.44557 177.483 1.12433 178.929 0.96371ZM192.582 35.0148C190.012 33.5692 189.851 31.4812 190.012 30.8387C190.172 30.0356 190.654 30.3569 190.975 30.3569C192.742 30.3569 194.509 29.875 196.758 27.4657C199.328 24.8959 200.131 19.1136 196.115 15.4194C191.939 11.4039 187.442 12.0464 184.551 15.7406C183.908 16.5437 182.463 17.0256 181.338 17.0256C179.411 17.0256 180.696 18.4711 180.696 18.7924C180.696 19.1136 180.375 19.2742 180.214 19.2742C179.571 19.1136 179.893 20.0773 179.893 20.2379C179.893 20.3985 179.572 20.7198 179.572 20.7198C178.768 20.7198 178.929 21.3622 179.09 21.6835C179.09 21.8441 179.09 22.1653 178.768 22.326C178.447 22.4866 178.287 23.1291 178.287 23.6109C178.287 24.414 179.09 25.0565 180.375 26.0202C181.66 26.9839 181.82 27.9476 181.82 28.5901C181.82 29.2325 181.981 30.3569 182.141 30.9994C182.463 31.8024 182.463 33.4086 180.696 33.4086C178.447 33.5692 174.592 35.1754 174.271 35.3361C172.986 35.8179 171.38 35.9785 170.095 35.6573C169.453 35.1754 168.81 34.6936 168.168 34.0511C167.846 33.248 168.328 32.2843 168.81 31.6418C169.613 32.4449 170.577 32.2843 171.219 32.2843C171.862 32.2843 174.753 31.8024 175.235 31.6418C175.717 31.4812 175.877 31.4812 176.038 31.6418C177.162 32.1237 178.768 32.1237 179.411 30.0356C180.053 27.787 178.608 28.4295 178.287 28.5901C178.126 28.7507 177.805 28.5901 177.965 28.4295C178.287 27.9476 177.805 27.9476 177.644 27.9476C177.002 27.9476 176.199 28.5901 176.038 28.7507C175.717 28.9113 175.556 28.9113 175.395 28.9113C174.592 28.4295 172.183 29.0719 171.38 27.787C171.38 27.4657 170.737 22.1653 170.416 21.2016C170.416 21.041 170.256 20.7198 170.577 20.3985C171.219 19.4348 172.826 20.3985 173.789 20.3985C174.914 20.3985 175.074 19.9167 175.395 19.5954C175.717 19.2742 175.877 19.4348 176.038 19.2742C176.199 19.1136 176.038 18.953 176.038 18.7924C176.038 18.6317 176.199 18.7924 176.359 18.6317C176.52 18.4711 176.359 18.1499 176.359 17.9893C176.68 17.5074 177.323 17.8286 177.002 16.8649C176.841 16.2225 177.162 15.58 177.483 15.2587C177.965 14.6163 180.053 11.7251 176.52 8.67339C173.147 5.78226 169.613 6.1035 167.364 8.51278C165.116 10.9221 166.24 14.4557 166.401 15.4194C166.561 16.3831 165.919 17.1862 165.116 17.5074C164.473 17.8286 163.028 18.7924 162.064 19.5954C162.225 11.8858 166.883 5.13979 173.95 2.40928C174.271 2.73051 174.592 3.21237 174.914 3.53361C174.11 4.17608 172.344 5.62164 172.344 5.62164C172.344 5.62164 172.504 5.62164 172.826 5.78226C172.986 5.78226 173.307 5.94288 173.307 5.94288C173.307 5.94288 174.753 4.65793 175.556 4.17608C176.038 4.65793 176.68 4.97917 177.323 5.30041C177.002 5.94288 176.038 7.54907 176.038 7.54907C176.038 7.54907 176.199 7.70968 176.359 7.70968C176.52 7.8703 176.68 7.8703 176.68 7.8703C176.68 7.8703 177.644 6.1035 177.965 5.46103C178.768 5.78226 179.572 5.94288 180.375 5.94288V9.15525C179.893 9.15525 178.768 9.15525 178.287 8.99463H177.965L178.126 9.31587C178.287 9.47649 178.287 9.6371 178.447 9.79772H180.375V15.7406H181.178V14.295C182.463 14.295 183.426 14.1344 184.551 13.9738L185.675 13.0101H185.033C183.748 13.1707 182.623 13.3313 181.66 13.3313H181.178V9.6371C182.623 9.6371 184.229 9.47649 185.675 8.99463L186.799 12.3676L187.602 12.0464L186.478 8.67339C187.763 8.35216 188.887 7.70968 190.012 7.22783C190.975 8.35216 191.779 9.6371 192.421 10.9221C191.779 11.2433 190.815 11.5645 190.815 11.5645C191.618 11.7251 192.26 11.8858 192.26 11.8858C192.26 11.8858 192.582 11.7251 192.742 11.7251C192.742 11.8858 192.903 12.207 192.903 12.207L194.027 12.6889L193.867 12.3676C193.867 12.3676 193.545 11.5645 193.385 11.4039C194.509 10.9221 195.633 10.2796 196.758 9.47649C198.846 12.5282 199.809 16.2225 199.809 19.9167C200.131 26.0202 197.079 31.4812 192.582 35.0148ZM159.334 5.30041L159.012 5.62164C157.888 6.58535 155.158 9.31587 155.639 12.3676V12.5282L155.8 13.1707L156.121 12.8495C157.727 11.4039 159.012 8.83401 159.494 5.94288L159.655 5.13979L159.334 5.30041ZM153.873 10.4402L153.712 10.7614C153.551 11.2433 153.23 12.3676 153.069 13.6526C152.748 15.58 152.909 18.4711 154.515 20.5592L154.676 20.8804L154.836 21.2016L155.157 19.9167C155.479 17.668 154.997 13.0101 154.194 10.9221L153.873 10.2796V10.4402ZM151.945 18.4711V18.7924C151.785 20.7198 151.945 25.6989 155.961 28.4295L156.442 28.7507V28.1082C156.442 26.1808 154.194 20.5592 152.588 18.6317L152.106 17.9893L151.945 18.4711ZM152.588 27.3051V27.6264C153.23 30.5175 155.8 35.0148 159.976 36.4604L160.619 36.621L160.458 35.9785C159.655 33.8905 155.639 28.9113 153.069 27.3051L152.588 26.9839V27.3051ZM161.1 9.6371L160.619 9.79772C157.567 11.7251 156.121 13.9738 156.121 16.8649V17.5074L156.603 17.1862C158.209 15.7406 160.458 12.207 160.94 10.2796L161.1 9.47649V9.6371ZM159.173 15.7406L159.012 16.0618C158.209 16.8649 155.639 19.5954 155.8 22.9684C155.8 23.4503 155.961 24.0928 156.121 24.5746L156.282 25.0565L156.603 24.5746C157.888 22.8078 159.494 18.3105 159.334 16.2225V15.58L159.173 15.7406ZM159.334 21.6835L159.173 22.0047C157.888 23.9321 157.246 25.8596 157.246 27.787C157.246 29.0719 157.727 30.3569 158.53 31.6418L158.852 32.1237L159.012 31.6418C159.494 30.5175 159.976 27.1445 159.976 24.414C159.976 23.4503 159.815 22.6472 159.655 22.1653L159.494 21.5229L159.334 21.6835ZM160.779 27.9476L160.619 28.2688C160.297 29.5538 159.976 30.6781 160.137 31.9631C160.137 34.533 161.422 36.621 163.67 38.0666L163.992 38.2272L164.152 37.7453V37.2635C164.152 35.1754 162.546 29.7144 161.261 28.1082L160.94 27.6264L160.779 27.9476ZM156.442 36.2998L156.603 36.621C158.209 39.3515 161.1 43.0457 166.401 42.082H166.883L166.561 41.7608C165.598 40.3152 159.173 36.621 156.924 36.2998L156.282 36.1391L156.442 36.2998ZM164.313 43.367L163.51 43.5276L164.313 43.8488C167.686 45.2944 171.862 45.6156 174.432 44.8125C175.395 44.4913 175.877 44.0094 176.52 43.367C180.856 43.8488 184.872 47.3824 187.281 50.2736L187.442 50.4342H187.602C187.924 50.2736 188.245 49.9523 188.406 49.7917L188.566 49.6311L188.406 49.4705C185.996 46.2581 182.141 44.3307 181.981 44.1701C178.447 42.5639 172.344 41.2789 164.313 43.367Z" fill="white"/>
<path d="M164.473 34.3724V34.6937C164.955 37.906 166.24 42.0821 171.701 41.6003H172.022L171.862 41.279C171.541 39.8335 166.561 35.6574 164.795 34.533L164.313 34.2118L164.473 34.3724ZM202.379 4.97925L202.54 5.78234C203.022 8.67347 204.307 11.2434 205.913 12.6889L206.234 13.0102L206.395 12.3677V12.2071C206.877 9.15533 204.146 6.42482 203.022 5.46111L202.7 5.13987L202.379 4.97925ZM208.001 10.119L207.68 10.7615C206.877 12.8496 206.555 17.5075 206.716 19.7561L207.037 21.0411L207.198 20.8805L207.358 20.5592C209.125 18.4712 209.125 15.7407 208.804 13.6526C208.643 12.2071 208.322 11.2434 208.162 10.7615L208.001 10.4403V10.119ZM210.089 18.15L209.607 18.7924C208.001 20.8805 205.752 26.3415 205.752 28.2689V28.9114L206.234 28.5902C210.25 26.0203 210.41 21.0411 210.25 18.9531V18.6318L210.089 18.15ZM209.446 26.984L208.804 27.3052C206.234 28.9114 202.219 33.8906 201.416 35.9786L201.255 36.6211L201.897 36.4605C206.073 35.1755 208.804 30.5176 209.286 27.6265V27.3052L209.446 26.984ZM200.934 9.31595L201.094 10.119C201.737 12.2071 203.664 15.7407 205.431 17.1863L205.913 17.5075V16.865C206.073 13.9739 204.628 11.7252 201.576 9.7978L201.255 9.63719L200.934 9.31595ZM202.7 15.5801V16.2225C202.54 18.3106 204.307 22.9685 205.431 24.5747L205.752 25.0566L205.913 24.5747C206.073 23.9322 206.234 23.4504 206.234 22.9685C206.395 19.5955 203.825 16.865 203.022 16.0619L202.861 15.9013L202.7 15.5801ZM202.54 21.3623L202.379 22.0048C202.219 22.4867 202.058 23.2898 202.058 24.2535C202.058 26.984 202.379 30.357 203.022 31.4813L203.182 31.9632L203.504 31.4813C204.307 30.357 204.789 29.072 204.789 27.6265C204.789 25.8597 204.146 23.7716 202.861 21.8442L202.7 21.5229L202.54 21.3623ZM201.094 27.6265L200.773 28.1083C199.488 29.7145 197.882 35.1755 197.882 37.2636V37.7454L198.043 38.2273L198.364 38.0667C200.612 36.6211 201.737 34.533 201.897 31.9632C201.897 30.8388 201.737 29.5539 201.416 28.2689L201.255 27.9477L201.094 27.6265ZM205.752 35.9786L205.11 36.1392C202.861 36.4605 196.436 40.1547 195.473 41.6003L195.151 41.9215H195.633C200.934 42.8852 203.825 39.191 205.431 36.4605L205.592 36.1392L205.752 35.9786ZM180.214 44.1702C180.053 44.1702 176.198 46.2582 173.789 49.4706L173.629 49.6312L173.789 49.7918C173.95 49.9524 174.432 50.2737 174.592 50.4343H174.753L174.914 50.2737C177.323 47.3825 181.338 43.6883 185.675 43.3671C186.317 44.0095 186.96 44.4914 187.763 44.8126C190.172 45.6157 194.509 45.2945 197.882 43.8489L198.685 43.5277L197.882 43.3671C189.69 41.279 183.587 42.564 180.214 44.1702ZM197.561 34.0512L197.079 34.3724C195.312 35.4968 190.493 39.6728 190.012 41.1184L189.851 41.4396H190.172C195.473 41.9215 196.758 37.7454 197.4 34.533V34.2118L197.561 34.0512ZM61.9987 1.9275H68.7447V8.031H61.9987V1.9275ZM62.6412 15.0982H68.2628V44.9732H62.6412V15.0982ZM20.0773 15.0982H25.699V44.9732H20.2379V40.6365H20.0773C17.8286 44.3308 13.9738 45.937 9.79773 45.937C3.53361 45.937 0 41.1184 0 35.1755V15.0982H5.62165V32.7662C5.62165 37.906 6.74598 41.7609 12.207 41.7609C14.4557 41.7609 17.668 40.6365 18.7924 37.4242C19.9167 34.6937 19.9167 31.1601 19.9167 30.357V15.0982H20.0773ZM36.9422 19.4349C39.0303 15.7407 43.0457 14.1345 46.0975 14.1345C48.1855 14.1345 57.3408 14.6164 57.3408 24.2535V44.8126H51.7191V26.0203C51.7191 21.0411 49.6311 18.4712 44.8125 18.4712C44.8125 18.4712 41.7608 18.3106 39.3515 20.7199C38.5484 21.5229 36.9422 22.8079 36.9422 28.7508V44.9732H31.3206V15.0982H36.9422V19.4349ZM91.8738 24.5747C91.5525 20.8805 89.7857 18.3106 85.7703 18.3106C80.4698 18.3106 78.3818 22.9685 78.3818 29.8751C78.3818 36.7817 80.4698 41.4396 85.7703 41.4396C89.4645 41.4396 91.7131 39.0304 92.0344 34.6937H97.656C97.1742 41.4396 92.195 45.4551 85.6096 45.4551C76.1331 45.4551 72.2783 38.7091 72.2783 30.0357C72.2783 21.3623 76.615 14.1345 86.0915 14.1345C92.3556 14.1345 97.0135 18.15 97.3348 24.5747H91.8738ZM106.008 30.9994C105.526 36.1392 107.775 41.6003 113.397 41.6003C117.733 41.6003 119.982 39.8335 120.624 35.4968H126.567C125.604 42.2427 120.464 45.6157 113.397 45.6157C103.92 45.6157 100.065 38.8697 100.065 30.1963C100.065 21.5229 104.402 14.2951 113.878 14.2951C122.713 14.4557 126.889 20.0774 126.889 28.2689V30.9994H106.008ZM121.106 27.1446C121.267 22.1654 119.018 18.3106 113.557 18.3106C108.899 18.3106 106.169 22.326 106.169 27.1446H121.106ZM133.313 44.652V18.9531H128.174V15.0982H133.313V8.67347C133.474 2.24874 138.453 0.481934 142.629 0.481934C143.914 0.481934 145.36 0.80317 146.645 1.12441V5.78234C145.681 5.78234 144.717 5.62172 143.754 5.62172C140.541 5.62172 138.774 6.42482 138.935 9.63719V15.0982H145.842V18.9531H138.935V44.652H133.313Z" fill="white"/>
</svg>
