<svg width="212" height="48" viewBox="0 0 212 48" fill="none" xmlns="http://www.w3.org/2000/svg">
<path d="M15.9038 40.6339C13.4808 40.6339 11.3465 40.1409 9.5011 39.1548C7.66974 38.1686 6.23283 36.781 5.19037 34.9919C4.16199 33.2028 3.6478 31.1038 3.6478 28.6949V9.61356L8.80377 9.5713V28.5681C8.80377 29.7092 8.99395 30.7305 9.37431 31.6321C9.76876 32.5337 10.297 33.3015 10.9591 33.9354C11.6212 34.5552 12.382 35.0272 13.2413 35.3512C14.1006 35.6752 14.9881 35.8372 15.9038 35.8372C16.8477 35.8372 17.7422 35.6752 18.5874 35.3512C19.4468 35.0131 20.2075 34.5341 20.8696 33.9143C21.5317 33.2803 22.0529 32.5126 22.4333 31.611C22.8137 30.7094 23.0038 29.6951 23.0038 28.5681V9.5713H28.1598V28.6949C28.1598 31.1038 27.6386 33.2028 26.5961 34.9919C25.5677 36.781 24.1308 38.1686 22.2854 39.1548C20.454 40.1409 18.3268 40.6339 15.9038 40.6339ZM44.0484 40.6339C41.8226 40.6339 39.8151 40.2465 38.026 39.4717C36.251 38.6969 34.7859 37.5911 33.6308 36.1542C32.4897 34.7032 31.7642 32.9845 31.4543 30.9982L36.737 30.1952C37.1878 31.9984 38.1105 33.393 39.5052 34.3791C40.9139 35.3653 42.534 35.8583 44.3653 35.8583C45.4501 35.8583 46.4714 35.6893 47.4293 35.3512C48.3873 35.0131 49.1621 34.52 49.7537 33.872C50.3595 33.224 50.6624 32.428 50.6624 31.4842C50.6624 31.0616 50.5919 30.6742 50.4511 30.322C50.3102 29.9557 50.0989 29.6317 49.8171 29.35C49.5495 29.0682 49.1973 28.8146 48.7606 28.5892C48.338 28.3498 47.8449 28.1455 47.2814 27.9764L39.4207 25.652C38.7445 25.4548 38.0119 25.1942 37.223 24.8702C36.4482 24.5321 35.7087 24.0742 35.0043 23.4967C34.314 22.905 33.7435 22.1584 33.2927 21.2568C32.856 20.3411 32.6376 19.2141 32.6376 17.8758C32.6376 15.9177 33.1307 14.2765 34.1168 12.9523C35.117 11.614 36.4553 10.6138 38.1317 9.95166C39.8222 9.28955 41.6958 8.96554 43.7525 8.97963C45.8375 8.99372 47.697 9.35295 49.3311 10.0573C50.9653 10.7476 52.3317 11.7548 53.4306 13.0791C54.5294 14.4033 55.3042 16.0022 55.755 17.8758L50.282 18.8267C50.0566 17.7561 49.6199 16.8474 48.9719 16.1008C48.338 15.3401 47.5561 14.7625 46.6264 14.368C45.7107 13.9736 44.7316 13.7623 43.6891 13.7341C42.6749 13.72 41.731 13.875 40.8576 14.199C39.9983 14.5089 39.3009 14.9597 38.7656 15.5514C38.2444 16.1431 37.9838 16.8333 37.9838 17.6222C37.9838 18.3689 38.2092 18.9817 38.66 19.4606C39.1107 19.9255 39.6672 20.2988 40.3293 20.5806C41.0055 20.8482 41.6887 21.0736 42.379 21.2568L47.8308 22.7782C48.5775 22.9754 49.4157 23.2431 50.3454 23.5812C51.2752 23.9193 52.1697 24.3912 53.0291 24.997C53.8884 25.6027 54.5928 26.3987 55.1422 27.3848C55.7057 28.3709 55.9874 29.6247 55.9874 31.1461C55.9874 32.7239 55.6564 34.1115 54.9942 35.3089C54.3462 36.4922 53.4658 37.4784 52.3529 38.2673C51.24 39.0561 49.9651 39.6478 48.5281 40.0423C47.1053 40.4367 45.6121 40.6339 44.0484 40.6339ZM60.5613 40V9.5713H73.1343C73.4301 9.5713 73.8104 9.58539 74.2753 9.61356C74.7402 9.62765 75.1699 9.66991 75.5643 9.74035C77.3252 10.008 78.7762 10.5926 79.9173 11.4942C81.0725 12.3958 81.9248 13.5369 82.4742 14.9175C83.0377 16.2839 83.3194 17.8054 83.3194 19.4818C83.3194 21.1441 83.0377 22.6655 82.4742 24.0461C81.9107 25.4125 81.0514 26.5466 79.8962 27.4482C78.7551 28.3498 77.3112 28.9344 75.5643 29.202C75.1699 29.2584 74.7332 29.3006 74.2542 29.3288C73.7893 29.357 73.416 29.3711 73.1343 29.3711H65.6539V40H60.5613ZM65.6539 24.6166H72.9229C73.2047 24.6166 73.5217 24.6025 73.8738 24.5743C74.226 24.5462 74.55 24.4898 74.8459 24.4053C75.6911 24.194 76.3532 23.8207 76.8322 23.2853C77.3252 22.75 77.6704 22.1443 77.8676 21.4681C78.0789 20.7919 78.1846 20.1298 78.1846 19.4818C78.1846 18.8337 78.0789 18.1716 77.8676 17.4954C77.6704 16.8052 77.3252 16.1924 76.8322 15.657C76.3532 15.1217 75.6911 14.7484 74.8459 14.5371C74.55 14.4526 74.226 14.4033 73.8738 14.3892C73.5217 14.361 73.2047 14.3469 72.9229 14.3469H65.6539V24.6166ZM98.8157 40.6339C96.5899 40.6339 94.5825 40.2465 92.7934 39.4717C91.0184 38.6969 89.5533 37.5911 88.3981 36.1542C87.2571 34.7032 86.5316 32.9845 86.2216 30.9982L91.5044 30.1952C91.9552 31.9984 92.8779 33.393 94.2726 34.3791C95.6813 35.3653 97.3013 35.8583 99.1327 35.8583C100.217 35.8583 101.239 35.6893 102.197 35.3512C103.155 35.0131 103.929 34.52 104.521 33.872C105.127 33.224 105.43 32.428 105.43 31.4842C105.43 31.0616 105.359 30.6742 105.218 30.322C105.078 29.9557 104.866 29.6317 104.585 29.35C104.317 29.0682 103.965 28.8146 103.528 28.5892C103.105 28.3498 102.612 28.1455 102.049 27.9764L94.188 25.652C93.5118 25.4548 92.7793 25.1942 91.9904 24.8702C91.2156 24.5321 90.476 24.0742 89.7716 23.4967C89.0814 22.905 88.5108 22.1584 88.06 21.2568C87.6233 20.3411 87.405 19.2141 87.405 17.8758C87.405 15.9177 87.898 14.2765 88.8841 12.9523C89.8843 11.614 91.2226 10.6138 92.899 9.95166C94.5895 9.28955 96.4631 8.96554 98.5199 8.97963C100.605 8.99372 102.464 9.35295 104.098 10.0573C105.733 10.7476 107.099 11.7548 108.198 13.0791C109.297 14.4033 110.072 16.0022 110.522 17.8758L105.049 18.8267C104.824 17.7561 104.387 16.8474 103.739 16.1008C103.105 15.3401 102.323 14.7625 101.394 14.368C100.478 13.9736 99.499 13.7623 98.4565 13.7341C97.4422 13.72 96.4984 13.875 95.6249 14.199C94.7656 14.5089 94.0683 14.9597 93.533 15.5514C93.0117 16.1431 92.7511 16.8333 92.7511 17.6222C92.7511 18.3689 92.9765 18.9817 93.4273 19.4606C93.8781 19.9255 94.4346 20.2988 95.0967 20.5806C95.7729 20.8482 96.4561 21.0736 97.1464 21.2568L102.598 22.7782C103.345 22.9754 104.183 23.2431 105.113 23.5812C106.043 23.9193 106.937 24.3912 107.796 24.997C108.656 25.6027 109.36 26.3987 109.91 27.3848C110.473 28.3709 110.755 29.6247 110.755 31.1461C110.755 32.7239 110.424 34.1115 109.762 35.3089C109.114 36.4922 108.233 37.4784 107.12 38.2673C106.007 39.0561 104.732 39.6478 103.296 40.0423C101.873 40.4367 100.379 40.6339 98.8157 40.6339Z" fill="white"/>
<path d="M125.014 36.2446C124.267 36.2446 123.606 36.1146 123.031 35.8545C122.468 35.5945 122.024 35.2314 121.698 34.7655C121.373 34.2995 121.2 33.7794 121.178 33.205H122.381C122.435 33.7577 122.679 34.2453 123.113 34.6679C123.546 35.0797 124.18 35.2856 125.014 35.2856C125.784 35.2856 126.391 35.0906 126.835 34.7005C127.29 34.2995 127.518 33.7956 127.518 33.1888C127.518 32.7011 127.393 32.311 127.144 32.0184C126.895 31.715 126.586 31.4929 126.217 31.352C125.849 31.2003 125.34 31.0377 124.689 30.8644C123.931 30.6585 123.329 30.458 122.885 30.2629C122.441 30.0679 122.061 29.7645 121.747 29.3527C121.433 28.9409 121.276 28.3828 121.276 27.6784C121.276 27.0933 121.428 26.5731 121.731 26.118C122.034 25.652 122.462 25.289 123.015 25.0289C123.568 24.7689 124.202 24.6388 124.917 24.6388C125.968 24.6388 126.813 24.8989 127.453 25.419C128.103 25.9284 128.477 26.5894 128.574 27.4021H127.339C127.263 26.9361 127.008 26.5244 126.575 26.1668C126.141 25.7983 125.556 25.6141 124.819 25.6141C124.137 25.6141 123.568 25.7983 123.113 26.1668C122.657 26.5244 122.43 27.0174 122.43 27.6459C122.43 28.1227 122.555 28.5074 122.804 28.8C123.053 29.0926 123.362 29.3147 123.73 29.4665C124.11 29.6182 124.619 29.7807 125.258 29.9541C125.995 30.16 126.591 30.3659 127.046 30.5718C127.501 30.7668 127.886 31.0702 128.2 31.482C128.515 31.8938 128.672 32.4465 128.672 33.14C128.672 33.671 128.531 34.1749 128.249 34.6517C127.967 35.1285 127.55 35.5132 126.997 35.8058C126.445 36.0984 125.784 36.2446 125.014 36.2446ZM135.974 36.2446C134.923 36.2446 133.97 36.0008 133.114 35.5132C132.257 35.0147 131.58 34.3266 131.082 33.4488C130.594 32.5603 130.35 31.5579 130.35 30.4417C130.35 29.3256 130.594 28.3286 131.082 27.4509C131.58 26.5623 132.257 25.8742 133.114 25.3865C133.97 24.8881 134.923 24.6388 135.974 24.6388C137.036 24.6388 137.995 24.8881 138.851 25.3865C139.708 25.8742 140.379 26.5623 140.867 27.4509C141.355 28.3286 141.598 29.3256 141.598 30.4417C141.598 31.5579 141.355 32.5603 140.867 33.4488C140.379 34.3266 139.708 35.0147 138.851 35.5132C137.995 36.0008 137.036 36.2446 135.974 36.2446ZM135.974 35.2531C136.82 35.2531 137.578 35.0581 138.25 34.6679C138.922 34.2778 139.453 33.7198 139.843 32.9937C140.233 32.2568 140.428 31.4062 140.428 30.4417C140.428 29.4773 140.233 28.632 139.843 27.906C139.453 27.18 138.922 26.6219 138.25 26.2318C137.578 25.8417 136.82 25.6466 135.974 25.6466C135.129 25.6466 134.371 25.8417 133.699 26.2318C133.027 26.6219 132.496 27.18 132.106 27.906C131.716 28.632 131.521 29.4773 131.521 30.4417C131.521 31.4062 131.716 32.2568 132.106 32.9937C132.496 33.7198 133.027 34.2778 133.699 34.6679C134.371 35.0581 135.129 35.2531 135.974 35.2531ZM144.818 35.2043H148.898V36.1309H143.68V24.7689H144.818V35.2043ZM151.611 24.7689V31.9209C151.611 33.0479 151.877 33.8823 152.408 34.4241C152.949 34.9659 153.686 35.2369 154.618 35.2369C155.55 35.2369 156.276 34.9714 156.796 34.4404C157.327 33.8986 157.593 33.0587 157.593 31.9209V24.7689H158.731V31.9047C158.731 33.3459 158.346 34.4295 157.577 35.1556C156.818 35.8816 155.826 36.2446 154.602 36.2446C153.377 36.2446 152.38 35.8816 151.611 35.1556C150.853 34.4295 150.473 33.3459 150.473 31.9047V24.7689H151.611ZM167.917 24.7689V25.7116H164.763V36.1309H163.625V25.7116H160.456V24.7689H167.917ZM170.851 24.7689V36.1309H169.713V24.7689H170.851ZM178.532 36.2446C177.481 36.2446 176.527 36.0008 175.671 35.5132C174.815 35.0147 174.138 34.3266 173.639 33.4488C173.151 32.5603 172.908 31.5579 172.908 30.4417C172.908 29.3256 173.151 28.3286 173.639 27.4509C174.138 26.5623 174.815 25.8742 175.671 25.3865C176.527 24.8881 177.481 24.6388 178.532 24.6388C179.594 24.6388 180.553 24.8881 181.409 25.3865C182.265 25.8742 182.937 26.5623 183.424 27.4509C183.912 28.3286 184.156 29.3256 184.156 30.4417C184.156 31.5579 183.912 32.5603 183.424 33.4488C182.937 34.3266 182.265 35.0147 181.409 35.5132C180.553 36.0008 179.594 36.2446 178.532 36.2446ZM178.532 35.2531C179.377 35.2531 180.136 35.0581 180.807 34.6679C181.479 34.2778 182.01 33.7198 182.4 32.9937C182.79 32.2568 182.985 31.4062 182.985 30.4417C182.985 29.4773 182.79 28.632 182.4 27.906C182.01 27.18 181.479 26.6219 180.807 26.2318C180.136 25.8417 179.377 25.6466 178.532 25.6466C177.686 25.6466 176.928 25.8417 176.256 26.2318C175.584 26.6219 175.053 27.18 174.663 27.906C174.273 28.632 174.078 29.4773 174.078 30.4417C174.078 31.4062 174.273 32.2568 174.663 32.9937C175.053 33.7198 175.584 34.2778 176.256 34.6679C176.928 35.0581 177.686 35.2531 178.532 35.2531ZM194.804 36.1309H193.666L187.376 26.5731V36.1309H186.238V24.7689H187.376L193.666 34.3103V24.7689H194.804V36.1309ZM200.827 36.2446C200.079 36.2446 199.418 36.1146 198.844 35.8545C198.281 35.5945 197.836 35.2314 197.511 34.7655C197.186 34.2995 197.013 33.7794 196.991 33.205H198.194C198.248 33.7577 198.492 34.2453 198.925 34.6679C199.359 35.0797 199.993 35.2856 200.827 35.2856C201.597 35.2856 202.203 35.0906 202.648 34.7005C203.103 34.2995 203.33 33.7956 203.33 33.1888C203.33 32.7011 203.206 32.311 202.956 32.0184C202.707 31.715 202.398 31.4929 202.03 31.352C201.662 31.2003 201.152 31.0377 200.502 30.8644C199.743 30.6585 199.142 30.458 198.698 30.2629C198.253 30.0679 197.874 29.7645 197.56 29.3527C197.246 28.9409 197.089 28.3828 197.089 27.6784C197.089 27.0933 197.24 26.5731 197.544 26.118C197.847 25.652 198.275 25.289 198.828 25.0289C199.38 24.7689 200.014 24.6388 200.73 24.6388C201.781 24.6388 202.626 24.8989 203.265 25.419C203.915 25.9284 204.289 26.5894 204.387 27.4021H203.152C203.076 26.9361 202.821 26.5244 202.388 26.1668C201.954 25.7983 201.369 25.6141 200.632 25.6141C199.949 25.6141 199.38 25.7983 198.925 26.1668C198.47 26.5244 198.243 27.0174 198.243 27.6459C198.243 28.1227 198.367 28.5074 198.616 28.8C198.866 29.0926 199.175 29.3147 199.543 29.4665C199.922 29.6182 200.432 29.7807 201.071 29.9541C201.808 30.16 202.404 30.3659 202.859 30.5718C203.314 30.7668 203.699 31.0702 204.013 31.482C204.327 31.8938 204.484 32.4465 204.484 33.14C204.484 33.671 204.344 34.1749 204.062 34.6517C203.78 35.1285 203.363 35.5132 202.81 35.8058C202.258 36.0984 201.597 36.2446 200.827 36.2446Z" fill="white"/>
</svg>
