<svg width="200" height="58" viewBox="0 0 200 58" fill="none" xmlns="http://www.w3.org/2000/svg">
<mask id="mask0_124_84" style="mask-type:alpha" maskUnits="userSpaceOnUse" x="0" y="0" width="200" height="58">
<path fill-rule="evenodd" clip-rule="evenodd" d="M35.9249 33.408L23.5641 40.7021C23.1273 40.9642 22.5813 40.9642 22.1664 40.7458L11.7275 35.1114C10.8539 34.6528 10.3516 33.7356 10.3516 32.7965L10.4826 21.615C10.4826 20.7196 10.9849 19.8461 11.793 19.4093L23.3675 12.5737C23.4986 12.5082 23.6733 12.5082 23.8043 12.5737L33.2169 17.6622C33.3697 17.7277 33.5226 17.7277 33.6536 17.6622L43.1098 12.0496C43.4156 11.853 43.4156 11.4163 43.1098 11.2852L24.6342 1.30489C23.8043 0.868116 22.8653 0.868116 22.1009 1.34857L1.55056 13.4691C0.786198 13.9277 0.305744 14.7795 0.240227 15.6748L0 38.9114C0 39.8941 0.502293 40.7895 1.37585 41.2263L21.817 52.233C22.6469 52.6698 23.6296 52.6698 24.394 52.1675L44.988 39.6102C45.2937 39.4137 45.4903 39.1079 45.4903 38.7366L45.6213 27.9919C45.6213 27.6862 45.2501 27.4897 44.988 27.6207L35.9249 33.408ZM24.3939 25.1972L23.8479 25.5029C23.0836 25.9615 22.079 25.9615 21.3146 25.5684L13.4527 21.3972C13.0596 21.2007 12.6228 21.4627 12.6228 21.8995V31.8362C12.6228 32.3821 12.8849 32.8408 13.3653 33.1465L21.533 37.9074C22.1008 38.2131 22.8434 38.2131 23.3675 37.9074L44.4638 25.4592C44.7259 25.3064 44.9006 25.0006 44.9224 24.6294L45.119 13.7536C45.119 13.4916 44.8132 13.295 44.573 13.4479L24.3939 25.1972ZM29.9408 19.7156L22.9087 23.865C22.7558 23.9742 22.5374 23.9742 22.3409 23.9087L15.418 20.1524C15.0467 19.9558 15.0467 19.4099 15.418 19.2133L22.4938 15.0203C22.6685 14.9547 22.8869 14.9547 23.0397 15.0203L29.9408 18.7765C30.3121 18.9731 30.3121 19.519 29.9408 19.7156ZM54.7284 28.0145C54.7284 26.1363 55.0341 24.4329 55.6237 22.7295C56.1915 21.0916 57.1088 19.6502 58.2444 18.4491C59.38 17.2479 60.7777 16.2652 62.3938 15.5008C64.0317 14.802 65.8661 14.4089 67.9845 14.4089C69.3604 14.4089 70.6052 14.5399 71.7408 14.7801C72.8764 15.0204 74.012 15.3479 75.0603 15.8502L73.5316 21.6812C72.8327 21.4191 72.0902 21.1789 71.2603 20.9824C70.4305 20.7858 69.5569 20.6766 68.5087 20.6766C66.3684 20.6766 64.7524 21.3536 63.6823 22.6858C62.6122 24.018 62.0662 25.7651 62.0662 27.9708C62.0662 30.2857 62.5685 32.0765 63.5512 33.365C64.534 34.6535 66.3029 35.265 68.7489 35.265C69.6443 35.265 70.5833 35.1994 71.5879 35.0247C72.5925 34.85 73.5316 34.588 74.3615 34.2604L75.366 40.2442C74.4925 40.6155 73.4661 40.9212 72.1994 41.1833C70.8891 41.4453 69.5569 41.5764 67.9845 41.5764C65.6478 41.5764 63.5949 41.2051 61.9352 40.5063C60.2536 39.8074 58.8559 38.8684 57.7421 37.6672C56.6283 36.4661 55.864 35.0466 55.3617 33.3868C54.9904 31.7271 54.7284 29.9581 54.7284 28.0145ZM99.957 33.496C100.547 31.8363 100.852 29.98 100.852 27.949C100.852 25.9398 100.525 24.1053 99.9788 22.4019C99.411 20.7203 98.4938 19.3226 97.4018 18.1433C96.3099 16.964 94.9996 16.0686 93.4272 15.3916C91.8548 14.7146 90.1732 14.4089 88.295 14.4089C86.4606 14.4089 84.779 14.7146 83.2066 15.3916C81.656 16.0686 80.302 16.964 79.1883 18.1433C78.0745 19.3226 77.1791 20.7421 76.5458 22.4019C75.9124 24.0616 75.6067 25.9179 75.6067 27.949C75.6067 29.98 75.9124 31.8144 76.5458 33.496C77.1136 35.1558 78.0308 36.5971 79.1227 37.7764C80.2147 38.9776 81.525 39.873 83.0974 40.55C84.6698 41.227 86.3732 41.5327 88.2514 41.5327C90.1732 41.5327 91.8766 41.227 93.449 40.55C94.9996 39.8948 96.3317 38.9557 97.4237 37.7764C98.5156 36.619 99.3892 35.1776 99.957 33.496ZM92.0732 22.6203C92.9686 23.9306 93.4053 25.6777 93.4053 27.949C93.4053 30.2202 92.9467 31.9891 92.0732 33.2995C91.1996 34.6316 89.9548 35.3086 88.2514 35.3086C86.5479 35.3086 85.2594 34.6316 84.3641 33.2995C83.4468 31.9673 82.9882 30.2202 82.9882 27.949C82.9882 25.6777 83.4687 23.9306 84.3641 22.6203C85.2813 21.3536 86.6135 20.7203 88.2514 20.7203C89.8893 20.7203 91.1778 21.3099 92.0732 22.6203ZM126.229 37.6673C126.229 41.8822 125.159 45.0052 123.019 47.0362C120.878 49.0672 117.603 50.0936 113.082 50.0936C111.51 50.0936 109.959 49.9407 108.387 49.6568C106.814 49.3948 105.373 49.0235 104.041 48.5649L105.351 42.4282C106.487 42.8868 107.688 43.258 108.933 43.5201C110.177 43.7822 111.641 43.9132 113.213 43.9132C115.288 43.9132 116.773 43.4546 117.624 42.5374C118.498 41.642 118.935 40.4627 118.935 39.0213V38.0822C118.17 38.4535 117.319 38.7156 116.511 38.9121C115.681 39.1087 114.807 39.1742 113.759 39.1742C110.199 39.1742 107.469 38.1041 105.591 36.0076C103.713 33.911 102.752 30.9628 102.752 27.1628C102.752 25.2847 103.058 23.5813 103.648 22.0089C104.215 20.4365 105.089 19.1261 106.225 18.0342C107.36 16.9423 108.736 16.0905 110.374 15.4572C112.012 14.8894 113.846 14.5618 115.921 14.5618C116.816 14.5618 117.734 14.6055 118.673 14.6929C119.462 14.7663 120.22 14.8551 121 14.9464L121.446 14.9986L121.548 15.0134C122.411 15.1396 123.289 15.2681 124.067 15.4572L124.173 15.4823C124.96 15.6687 125.666 15.8359 126.273 16.0032V37.6673H126.229ZM110.221 27.1847C110.221 31.2467 111.859 33.3214 115.135 33.3214C115.877 33.3214 116.576 33.2559 117.253 33.0156C117.93 32.8191 118.454 32.5789 118.935 32.3168V20.6985C118.564 20.633 118.17 20.5675 117.624 20.5457C117.122 20.502 116.554 20.4801 115.921 20.4801C114.021 20.4801 112.558 21.1135 111.641 22.3801C110.68 23.6249 110.221 25.241 110.221 27.1847ZM130.466 22.227C129.767 23.9304 129.395 25.9396 129.395 28.2108C129.395 30.1327 129.679 31.8798 130.291 33.5395C130.859 35.1338 131.667 36.5751 132.802 37.7544C133.938 38.9337 135.357 39.8728 137.061 40.5716C138.764 41.205 140.795 41.5762 143.11 41.5762C144.027 41.5762 144.967 41.5544 145.862 41.4233C146.801 41.3141 147.675 41.205 148.439 41.0521C149.129 40.9402 149.739 40.7806 150.324 40.6276C150.424 40.6014 150.524 40.5753 150.623 40.5498C151.3 40.3751 151.802 40.1785 152.195 39.982L151.212 34.0418C150.383 34.3912 149.356 34.697 148.046 34.9372C146.735 35.1774 145.425 35.3085 144.093 35.3085C141.975 35.3085 140.337 34.8717 139.092 33.9763C137.847 33.1246 137.126 31.9016 136.973 30.4166H153.505C153.505 30.0235 153.527 29.5867 153.571 29.0844C153.615 28.5821 153.615 28.1235 153.615 27.6867C153.615 23.3626 152.566 20.0431 150.448 17.8374C148.308 15.6098 145.425 14.4742 141.778 14.4742C140.206 14.4742 138.677 14.8018 137.192 15.3696C135.707 15.9374 134.375 16.811 133.239 17.9466C132.103 19.1041 131.164 20.5236 130.466 22.227ZM146.277 23.6247C146.43 24.2362 146.539 24.804 146.583 25.4373V25.4592H136.973C137.061 24.8258 137.236 24.1925 137.432 23.6247C137.629 22.9914 137.934 22.4672 138.327 22.0086C138.721 21.55 139.245 21.1787 139.813 20.9167C140.402 20.6328 141.101 20.4799 141.931 20.4799C142.739 20.4799 143.481 20.6109 144.049 20.9167C144.573 21.2224 145.054 21.5937 145.447 22.0523C145.818 22.5328 146.124 23.0569 146.277 23.6247ZM156.76 16.0686C158.005 15.6974 159.599 15.3698 161.586 15.0641C163.53 14.7583 165.604 14.6054 167.745 14.6054C169.929 14.6054 171.719 14.8675 173.204 15.479C174.646 16.0468 175.825 16.8548 176.655 17.9031C177.528 18.9732 178.096 20.1744 178.468 21.6157C178.839 23.0571 179.014 24.6731 179.014 26.4421V40.9649H171.719V27.3375C171.719 25.0007 171.414 23.3191 170.78 22.3364C170.147 21.3536 168.968 20.8514 167.308 20.8514C166.985 20.8514 166.626 20.8694 166.254 20.8881L166.254 20.8881C166.048 20.8985 165.837 20.9091 165.626 20.9169C165.309 20.9286 165.017 20.9656 164.741 21.0007C164.503 21.0309 164.276 21.0597 164.054 21.0697V40.8776H156.76V16.0686ZM182.944 8.72381L182.901 8.73087V8.70903H182.944V8.72381ZM182.944 8.72381L190.195 7.55158V15.1515H198.93V21.2008H190.195V30.264C190.195 31.7927 190.457 33.0375 191.025 33.9329C191.593 34.8283 192.663 35.3087 194.279 35.3087C195.043 35.3087 195.895 35.2432 196.703 35.0685C197.533 34.9156 198.319 34.6972 198.974 34.4352L199.979 40.0914C199.083 40.4627 198.101 40.7684 197.031 41.0305C195.939 41.2926 194.65 41.4236 193.078 41.4236C191.068 41.4236 189.431 41.1615 188.164 40.5937C186.854 40.0478 185.827 39.2834 185.041 38.3225C184.277 37.3397 183.709 36.2041 183.403 34.8064C183.097 33.4306 182.944 31.9237 182.944 30.2858V8.72381ZM136.361 56.5141H140.38V57.6497H134.92V46.3154H136.361V56.5141ZM153.133 55.0071H158.091L159.074 57.6277H160.646L156.453 46.5117H154.815L150.622 57.6277H152.194L153.133 55.0071ZM155.579 48.1933L157.654 53.8933H153.505L155.579 48.1933ZM178.925 52.7578C179.362 53.2601 179.602 53.8934 179.602 54.5704C179.602 55.5095 179.296 56.2083 178.663 56.7762C178.03 57.3221 177.134 57.606 175.911 57.606H171.696V46.3154H175.846C176.981 46.3154 177.855 46.5556 178.423 47.0579C178.99 47.5602 179.318 48.259 179.318 49.1326C179.318 49.8751 179.122 50.4647 178.75 50.9015C178.357 51.3601 177.855 51.644 177.265 51.7751C177.942 51.9279 178.488 52.2555 178.925 52.7578ZM173.181 51.2509H175.605C176.304 51.2509 176.85 51.0981 177.243 50.7486C177.636 50.4429 177.811 49.9843 177.811 49.351C177.811 48.7831 177.615 48.3464 177.265 47.9751C176.916 47.6039 176.326 47.4728 175.562 47.4728H173.181V51.2509ZM177.44 55.8808C177.877 55.5095 178.073 55.0072 178.073 54.3957C178.073 53.7842 177.833 53.2601 177.396 52.9107C176.959 52.5394 176.326 52.3647 175.584 52.3647H173.16V56.3831H175.627C176.413 56.3831 177.003 56.2302 177.44 55.8808ZM196.614 57.3221C197.116 57.0164 197.531 56.6451 197.793 56.1865C198.034 55.706 198.208 55.2037 198.23 54.6796C198.23 53.9808 198.077 53.413 197.772 52.9762C197.466 52.5394 197.073 52.19 196.636 51.9934C196.199 51.775 195.61 51.5567 194.867 51.3164C194.772 51.2834 194.679 51.2515 194.59 51.2208C194.147 51.0685 193.778 50.9413 193.469 50.8141C193.098 50.6394 192.836 50.4429 192.596 50.1808C192.356 49.8751 192.225 49.5475 192.225 49.1107C192.225 48.5429 192.399 48.1061 192.77 47.8004C193.098 47.4946 193.6 47.3418 194.168 47.3418C194.801 47.3418 195.304 47.4728 195.697 47.8441C196.09 48.1498 196.33 48.5647 196.396 49.0234H197.968C197.837 48.1498 197.51 47.4946 196.833 46.9487C196.199 46.3809 195.282 46.1188 194.19 46.1188C193.447 46.1188 192.858 46.2498 192.312 46.49C191.81 46.7958 191.373 47.1234 191.111 47.5602C190.827 48.0406 190.674 48.5647 190.674 49.1325C190.674 49.7877 190.827 50.3337 191.133 50.7705C191.395 51.2072 191.788 51.513 192.225 51.7095C192.618 51.9279 193.229 52.1463 193.928 52.3865C194.414 52.5254 194.803 52.6918 195.129 52.831C195.213 52.8669 195.293 52.9011 195.369 52.9325C195.719 53.1072 196.024 53.3474 196.265 53.6095C196.505 53.9153 196.636 54.2865 196.636 54.7451C196.636 55.3129 196.505 55.706 196.134 56.0773C195.784 56.4267 195.282 56.5796 194.649 56.5796C194.168 56.5796 193.775 56.4704 193.404 56.2738C193.033 56.0773 192.77 55.8371 192.574 55.5313C192.421 55.2256 192.312 54.898 192.268 54.5923H190.696C190.718 55.2256 190.936 55.7716 191.264 56.2302C191.591 56.6888 192.093 57.1037 192.661 57.3658C193.273 57.6279 193.928 57.7589 194.67 57.7589C195.435 57.7589 196.112 57.6279 196.614 57.3221Z" fill="white"/>
</mask>
<g mask="url(#mask0_124_84)">
<rect x="-6" y="-25" width="216" height="104" rx="6" fill="white"/>
</g>
</svg>
